<?xml version="1.0" encoding="UTF-8" standalone="no"?>
<!-- Created with Inkscape (http://www.inkscape.org/) -->

<svg
   height="593.9455"
   width="5455.6196"
   version="1.1"
   viewBox="0 0 5455.6198 593.94548"
   id="svg2"
   sodipodi:docname="logo-dark.svg"
   inkscape:version="1.3.2 (091e20e, 2023-11-25)"
   xmlns:inkscape="http://www.inkscape.org/namespaces/inkscape"
   xmlns:sodipodi="http://sodipodi.sourceforge.net/DTD/sodipodi-0.dtd"
   xmlns="http://www.w3.org/2000/svg"
   xmlns:svg="http://www.w3.org/2000/svg"
   xmlns:rdf="http://www.w3.org/1999/02/22-rdf-syntax-ns#"
   xmlns:cc="http://creativecommons.org/ns#"
   xmlns:dc="http://purl.org/dc/elements/1.1/">
  <defs
     id="defs2">
    <clipPath
       id="clip0_934_9493">
      <rect
         width="250"
         height="250"
         fill="#ffffff"
         id="rect8"
         x="0"
         y="0" />
    </clipPath>
  </defs>
  <sodipodi:namedview
     id="namedview2"
     pagecolor="#505050"
     bordercolor="#eeeeee"
     borderopacity="1"
     inkscape:showpageshadow="0"
     inkscape:pageopacity="0"
     inkscape:pagecheckerboard="0"
     inkscape:deskcolor="#505050"
     inkscape:zoom="0.16048892"
     inkscape:cx="2937.8974"
     inkscape:cy="-330.24086"
     inkscape:window-width="1728"
     inkscape:window-height="1051"
     inkscape:window-x="0"
     inkscape:window-y="38"
     inkscape:window-maximized="0"
     inkscape:current-layer="svg2">
    <inkscape:page
       x="0"
       y="0"
       width="5455.6196"
       height="593.9455"
       id="page4"
       margin="0 0 0 0"
       bleed="0" />
  </sodipodi:namedview>
  <title
     id="title1">Node-RED Icon</title>
  <metadata
     id="metadata1">
    <rdf:RDF>
      <cc:Work
         rdf:about="">
        <dc:format>image/svg+xml</dc:format>
        <dc:type
           rdf:resource="http://purl.org/dc/dcmitype/StillImage" />
        <dc:title>Node-RED Icon</dc:title>
        <cc:license
           rdf:resource="http://creativecommons.org/licenses/by/3.0/" />
        <dc:creator>
          <cc:Agent>
            <dc:title>Nick O'Leary</dc:title>
          </cc:Agent>
        </dc:creator>
      </cc:Work>
      <cc:License
         rdf:about="http://creativecommons.org/licenses/by/3.0/">
        <cc:permits
           rdf:resource="http://creativecommons.org/ns#Reproduction" />
        <cc:permits
           rdf:resource="http://creativecommons.org/ns#Distribution" />
        <cc:requires
           rdf:resource="http://creativecommons.org/ns#Notice" />
        <cc:requires
           rdf:resource="http://creativecommons.org/ns#Attribution" />
        <cc:permits
           rdf:resource="http://creativecommons.org/ns#DerivativeWorks" />
      </cc:License>
    </rdf:RDF>
  </metadata>
  <g
     transform="translate(83.560023,-511.58907)"
     id="g2">
    <rect
       style="color:#000000;isolation:auto;mix-blend-mode:normal;solid-color:#000000;color-rendering:auto;image-rendering:auto;shape-rendering:auto"
       ry="56"
       height="448"
       width="448"
       y="588.35999"
       x="16"
       fill="#8f0000"
       id="rect1" />
    <g
       transform="matrix(8.545,0,0,8.545,-786.19,-1949.8)"
       id="g1">
      <path
         style="color:#000000;text-indent:0;text-decoration-line:none;text-decoration-style:solid;text-decoration-color:#000000;text-transform:none;white-space:normal;isolation:auto;mix-blend-mode:normal;solid-color:#000000;color-rendering:auto;image-rendering:auto;shape-rendering:auto"
         d="m 104.41,321.21 c 0.0138,-2.3846 -1.905,-4.2806 -4.2896,-4.2806 h -6.243 v 2.9257 h 6.243 c 0.80513,0 1.4808,0.58383 1.4808,1.389 v 4.2422 c 0,0.80513 -0.67566,1.5075 -1.4808,1.5075 h -6.243 v 2.8086 h 6.243 c 2.3846,0 4.2895,-1.9315 4.2895,-4.3162 l -5e-5,-1.9812 c 9.8659,0.14125 12.737,2.7065 15.877,5.4519 3.0241,2.6446 6.4153,5.4869 15.252,5.557 l 4.6e-4,0.97238 c 0.001,2.3846 1.9543,4.3803 4.3389,4.3803 h 6.4273 v -3.0427 h -6.4273 c -0.80514,0 -1.4135,-0.53255 -1.4135,-1.3377 v -4.2422 c 0,-0.80513 0.60835,-1.4418 1.4135,-1.4418 h 6.4273 v -2.8086 h -6.4273 c -2.3846,0 -4.3379,1.8658 -4.3389,4.2504 l -4.5e-4,1.005 c -8.351,-0.0276 -10.723,-2.3434 -13.76,-4.9992 -2.5914,-2.2662 -5.6368,-4.7578 -12.346,-5.6642 0.0583,-0.0501 0.11211,-0.0987 0.16838,-0.15027 1.2918,-1.1846 1.9884,-2.6158 2.6699,-3.8516 0.68148,-1.2357 1.3227,-2.267 2.373,-2.9879 0.85207,-0.58483 2.0639,-1.0208 3.926,-1.1017 l 1.8e-4,0.99192 c 4.3e-4,2.3846 1.9236,4.4325 4.3083,4.4325 h 17.242 c 2.3846,0 4.3127,-2.0479 4.3127,-4.4325 v -4.2422 c 0,-2.3846 -1.9281,-4.3153 -4.3127,-4.3153 h -17.242 c -2.3846,0 -4.3095,1.9306 -4.3083,4.3153 l 5.1e-4,0.98395 c -2.2474,0.0903 -3.9508,0.6357 -5.2079,1.4985 -1.5245,1.0464 -2.3662,2.4764 -3.0762,3.7637 -0.70992,1.2873 -1.3108,2.4408 -2.2188,3.2734 -0.79034,0.72475 -1.8834,1.2844 -3.658,1.493 z m 18.468,-12.356 h 17.242 c 0.80514,0 1.387,0.58455 1.387,1.3897 v 4.2422 c 0,0.80514 -0.5819,1.3898 -1.387,1.3898 h -17.242 c -0.80514,0 -1.4994,-0.58462 -1.4994,-1.3898 v -4.2422 c 0,-0.80513 0.69431,-1.3897 1.4994,-1.3897 z"
         fill="#ffffff"
         id="path1" />
    </g>
  </g>
  <g
     style="fill:none"
     id="g3"
     transform="matrix(1.7910163,0,0,1.7910163,672.79626,80.141526)">
    <path
       d="m 212.237,129.43 0.35,0.14 0.35,0.14 0.33,0.16 0.33,0.18 0.32,0.18 0.321,0.2 0.3,0.23 0.29,0.22 0.27,0.25 0.28,0.25 0.26,0.28 0.24,0.27 0.24,0.3 0.21,0.3 0.21,0.32 0.181,0.309 0.17,0.34 0.16,0.33 0.14,0.34 0.14,0.35 0.1,0.36 0.1,0.35 0.07,0.38 0.07,0.36 0.04,0.38 0.02,0.36 0.01,0.37 -0.01,0.38 -0.02,0.37 -0.04,0.37 -0.07,0.37 -0.07,0.36 -0.1,0.37 -0.1,0.35 -0.14,0.36 -0.14,0.34 -0.16,0.33 -0.17,0.33 -0.181,0.32 -0.21,0.32 -0.21,0.3 -0.24,0.28 -0.24,0.29 -0.26,0.26 -0.28,0.27 -0.27,0.25 -0.29,0.22 -0.3,0.21 -0.321,0.22 -0.32,0.18 -0.33,0.18 -0.33,0.15 -0.35,0.15 -0.35,0.12 -0.35,0.12 -0.36,0.08 -0.36,0.09 -0.381,0.05 -0.36,0.04 -0.38,0.04 h -0.06 l 0.38,-0.01 0.68,-0.03 0.681,-0.04 0.68,-0.06 0.67,-0.09 0.68,-0.1 0.671,-0.11 0.67,-0.14 0.66,-0.15 0.67,-0.17 0.661,-0.19 0.65,-0.21 0.64,-0.22 0.64,-0.24 0.631,-0.26 0.63,-0.27 0.62,-0.29 0.61,-0.31 0.6,-0.32 0.591,-0.34 0.58,-0.36 0.58,-0.36 0.56,-0.38 0.56,-0.41 0.541,-0.42 0.53,-0.42 0.52,-0.45 0.51,-0.46 0.49,-0.46 0.491,-0.49 0.47,-0.49 0.45,-0.51 0.44,-0.52 0.43,-0.53 0.42,-0.55 0.401,-0.55 0.38,-0.56 0.38,-0.58 0.35,-0.579 0.34,-0.6 0.33,-0.6 0.3,-0.6 0.29,-0.62 0.27,-0.63 0.261,-0.63 0.24,-0.64 0.23,-0.65 0.2,-0.65 0.19,-0.66 0.17,-0.66 0.15,-0.66 0.14,-0.68 0.12,-0.67 0.1,-0.67 0.07,-0.68 0.07,-0.68 0.05,-0.69 0.02,-0.679 0.01,-0.68 -0.01,-0.68 -0.02,-0.69 -0.05,-0.68 -0.07,-0.68 -0.07,-0.67 -0.1,-0.68 -0.12,-0.68 -0.14,-0.66 -0.15,-0.67 -0.13,-0.51 h -24.319 l -0.48,0.01 h -57.521 l 59.662,16.409 z"
       fill="#ffffff"
       id="path1-6" />
    <path
       d="m 249.96,135.379 -0.05,-0.86 -0.06,-0.85 -0.08,-0.859 -0.1,-0.85 -0.11,-0.84 -0.14,-0.85 -0.16,-0.84 -0.16,-0.84 -0.19,-0.83 -0.21,-0.83 -0.221,-0.83 -0.25,-0.82 -0.26,-0.81 -0.27,-0.82 -0.3,-0.8 -0.31,-0.79 -0.33,-0.8 -0.34,-0.779 -0.36,-0.78 -0.371,-0.77 -0.4,-0.75 -0.41,-0.76 -0.43,-0.74 -0.44,-0.74 -0.45,-0.72 -0.48,-0.72 -0.481,-0.7 -0.5,-0.69 -0.17,-0.22 h -7.453 l 0.13,0.51 0.151,0.67 0.14,0.66 0.12,0.68 0.1,0.68 0.07,0.67 0.07,0.68 0.05,0.68 0.02,0.69 0.01,0.68 -0.01,0.68 -0.02,0.679 -0.05,0.69 -0.07,0.68 -0.07,0.68 -0.1,0.67 -0.12,0.67 -0.14,0.68 -0.151,0.66 -0.17,0.66 -0.19,0.66 -0.2,0.65 -0.23,0.65 -0.24,0.64 -0.26,0.63 -0.27,0.63 -0.29,0.62 -0.3,0.6 -0.33,0.6 -0.341,0.6 -0.35,0.579 -0.38,0.58 -0.38,0.56 -0.4,0.55 -0.42,0.55 -0.43,0.53 -0.441,0.52 -0.45,0.51 -0.47,0.49 -0.49,0.49 -0.49,0.46 -0.51,0.46 -0.521,0.45 -0.53,0.42 -0.54,0.42 -0.56,0.41 -0.56,0.38 -0.581,0.36 -0.58,0.36 -0.59,0.34 -0.6,0.32 -0.61,0.31 -0.621,0.29 -0.63,0.27 -0.63,0.26 -0.64,0.24 -0.641,0.22 -0.65,0.21 -0.66,0.19 -0.67,0.17 -0.661,0.15 -0.67,0.14 -0.67,0.11 -0.68,0.1 -0.671,0.09 -0.68,0.06 -0.68,0.04 -0.68,0.03 -0.691,0.01 H 0 v 32.257 h 209.675 l 0.861,-0.01 0.85,-0.02 0.86,-0.05 0.851,-0.07 0.85,-0.08 0.85,-0.09 0.851,-0.13 0.84,-0.13 0.84,-0.15 0.841,-0.18 0.84,-0.19 0.82,-0.2 0.83,-0.23 0.831,-0.24 0.81,-0.25 0.81,-0.29 0.801,-0.29 0.8,-0.31 0.79,-0.32 0.78,-0.34 0.781,-0.37 0.77,-0.38 0.76,-0.39 0.751,-0.41 0.74,-0.42 0.74,-0.45 0.71,-0.45 0.721,-0.469 0.71,-0.49 0.69,-0.5 0.68,-0.52 0.671,-0.53 0.67,-0.55 0.65,-0.56 0.63,-0.56 0.621,-0.59 0.61,-0.6 0.6,-0.61 0.58,-0.63 0.58,-0.63 0.561,-0.65 0.54,-0.66 0.53,-0.67 0.52,-0.69 0.5,-0.69 0.481,-0.7 0.48,-0.72 0.45,-0.72 0.44,-0.739 0.43,-0.74 0.41,-0.75 0.4,-0.76 0.371,-0.77 0.36,-0.77 0.34,-0.79 0.33,-0.79 0.31,-0.79 0.3,-0.81 0.27,-0.81 0.26,-0.81 0.25,-0.83 0.221,-0.82 0.21,-0.83 0.19,-0.84 0.16,-0.829 0.16,-0.84 0.14,-0.85 0.11,-0.85 0.1,-0.85 0.08,-0.85 0.06,-0.86 0.05,-0.85 0.03,-0.85 0.01,-0.86 -0.01,-0.86 z"
       fill="#fa6863"
       id="path2-3" />
    <path
       d="m 37.7624,120.54 -0.3501,-0.13 -0.3502,-0.14 -0.3301,-0.16 -0.3401,-0.18 -0.3101,-0.19 -0.3201,-0.2 -0.3001,-0.22 -0.2902,-0.23 -0.2801,-0.25 -0.2701,-0.25 -0.26,-0.27 -0.2401,-0.28 -0.2401,-0.299 -0.2101,-0.3 -0.2101,-0.31 -0.18,-0.31 -0.1701,-0.34 -0.1701,-0.34 -0.13,-0.33 -0.1401,-0.35 -0.1,-0.37 -0.1,-0.35 -0.0801,-0.37 -0.06,-0.36 -0.04,-0.38 -0.02,-0.36 -0.01,-0.38 0.01,-0.37 0.02,-0.38 0.04,-0.36 0.06,-0.37 0.0801,-0.37 0.1,-0.36 0.1,-0.35 0.1401,-0.36 0.13,-0.34 0.1701,-0.34 0.1701,-0.32 0.18,-0.33 0.2101,-0.31 0.2101,-0.3 0.2401,-0.29 0.2401,-0.28 0.26,-0.27 0.2701,-0.26 0.2801,-0.25 0.2902,-0.22 0.3001,-0.22 0.3201,-0.21 0.3101,-0.19 0.3401,-0.17 0.3301,-0.15 0.3502,-0.149 0.3501,-0.13 0.3501,-0.11 0.3601,-0.09 0.3602,-0.08 0.3801,-0.05 0.3601,-0.04 0.3702,-0.04 h 0.07 -0.3801 l -0.6803,0.03 -0.6802,0.05 -0.6803,0.06 -0.6702,0.08 -0.6803,0.1 -0.6802,0.12 -0.6603,0.13 -0.6702,0.159 -0.6602,0.17 -0.6603,0.19 -0.6502,0.21 -0.6402,0.22 -0.6503,0.23 -0.6202,0.26 -0.6302,0.28 -0.6202,0.29 -0.6103,0.31 -0.6102,0.32 -0.5802,0.33 -0.5802,0.36 -0.5802,0.37 -0.5702,0.38 -0.5502,0.41 -0.5502,0.41 -0.5202,0.43 -0.5202,0.44 -0.5102,0.46 -0.4901,0.47 -0.4902,0.48 -0.4702,0.5 -0.4502,0.5 -0.4501,0.52 -0.4202,0.54 -0.4301,0.54 -0.3902,0.55 -0.3901,0.57 -0.3701,0.57 -0.3502,0.59 -0.3401,0.589 -0.3301,0.61 -0.3001,0.6 -0.2901,0.62 -0.2701,0.63 -0.2601,0.63 -0.2401,0.64 -0.2301,0.65 -0.2,0.65 -0.1901,0.66 -0.1701,0.65 -0.15,0.67 -0.1401,0.67 -0.12,0.68 -0.1001,0.67 -0.07,0.68 -0.07,0.67 -0.05,0.69 -0.02,0.68 -0.01,0.679 0.01,0.69 0.02,0.68 0.05,0.68 0.07,0.68 0.07,0.68 0.1001,0.68 0.12,0.67 0.1401,0.67 0.15,0.66 0.1301,0.52 h 24.3187 l 0.4802,-0.01 H 97.844 L 38.1825,120.67 Z"
       fill="#ffffff"
       id="path3-2" />
    <path
       d="m 0.0400144,114.601 0.0400144,0.86 0.0700252,0.85 0.080029,0.85 0.100036,0.85 0.110039,0.85 0.140051,0.84 0.150054,0.85 0.170061,0.84 0.190066,0.83 0.21008,0.83 0.22008,0.83 0.25009,0.82 0.26009,0.809 0.2701,0.81 0.30011,0.81 0.31011,0.79 0.33012,0.8 0.34012,0.78 0.36013,0.78 0.37013,0.76 0.40015,0.76 0.41014,0.76 0.43016,0.74 0.44016,0.73 0.45016,0.72 0.47017,0.72 0.49018,0.71 0.50018,0.69 0.17006,0.22 h 7.45269 l -0.1301,-0.52 -0.15,-0.66 -0.1401,-0.67 -0.12,-0.67 -0.1,-0.68 -0.0701,-0.68 -0.07,-0.68 -0.05,-0.68 -0.02,-0.68 -0.01,-0.69 0.01,-0.68 0.02,-0.68 0.05,-0.69 0.07,-0.67 0.0701,-0.68 0.1,-0.67 0.12,-0.68 0.1401,-0.669 0.15,-0.67 0.1701,-0.65 0.1901,-0.66 0.2,-0.65 0.2301,-0.65 0.2401,-0.64 0.2601,-0.63 0.2701,-0.63 0.2901,-0.62 0.3001,-0.6 0.3301,-0.61 0.3402,-0.59 0.3501,-0.59 0.3701,-0.57 0.3902,-0.57 0.3901,-0.55 0.4302,-0.54 0.4201,-0.54 0.4502,-0.52 0.4501,-0.5 0.4702,-0.5 0.4902,-0.479 0.4902,-0.47 0.5101,-0.46 0.5202,-0.44 0.5202,-0.43 0.5502,-0.41 0.5502,-0.41 0.5702,-0.38 0.5802,-0.37 0.5802,-0.36 0.5802,-0.33 0.6103,-0.32 0.6102,-0.31 0.6202,-0.29 0.6302,-0.28 0.6202,-0.26 0.6503,-0.23 0.6402,-0.22 0.6502,-0.21 0.6603,-0.19 0.6602,-0.17 0.6703,-0.16 0.6602,-0.13 0.6802,-0.12 0.6803,-0.1 0.6702,-0.08 0.6803,-0.06 0.6802,-0.05 0.6803,-0.03 0.6902,-0.01 H 250 V 72.5747 H 40.3245 l -0.8603,0.01 -0.8503,0.02 -0.8603,0.05 -0.8503,0.06 -0.8603,0.08 -0.8403,0.1 -0.8503,0.12 -0.8403,0.13 -0.8403,0.1599 -0.8503,0.17 -0.8303,0.19 -0.8303,0.21 -0.8203,0.22 -0.8303,0.25 -0.8103,0.2499 -0.8103,0.28 -0.8003,0.29 -0.8003,0.32 -0.7903,0.3199 -0.7803,0.34 -0.7802,0.37 -0.7703,0.38 -0.7603,0.3799 -0.7503,0.42 -0.7402,0.42 -0.7403,0.4399 -0.7203,0.46 -0.7202,0.4699 -0.7003,0.49 -0.6902,0.5 -0.6903,0.5099 -0.6602,0.53 -0.6702,0.5499 -0.6503,0.56 -0.6302,0.57 -0.6202,0.5899 -0.6102,0.59 -0.6003,0.6199 -0.5902,0.63 -0.5702,0.6299 -0.56018,0.65 -0.5402,0.6599 -0.53019,0.6699 -0.52018,0.68 -0.50018,0.6999 -0.49018,0.7 -0.47017,0.7099 -0.45016,0.73 -0.44016,0.7399 -0.43016,0.7399 -0.41014,0.74 -0.40015,0.7599 -0.37013,0.78 -0.36013,0.7699 -0.34012,0.7899 -0.33012,0.78 -0.31011,0.7999 -0.30011,0.8 -0.2701,0.8094 -0.26009,0.82 -0.25009,0.82 -0.22008,0.83 -0.21008,0.83 -0.190066,0.84 -0.170061,0.83 -0.150054,0.84 -0.140051,0.85 -0.110039,0.85 -0.100036,0.85 -0.080029,0.85 -0.0700252,0.85 -0.0400144,0.85 L 0,112.032 v 0.859 0.86 z"
       fill="#f18046"
       id="path4-6" />
    <path
       d="m 37.7624,47.9756 -0.3501,-0.14 -0.3502,-0.15 -0.3401,-0.15 -0.3201,-0.18 -0.3301,-0.18 -0.3101,-0.1999 -0.3001,-0.23 -0.3002,-0.22 -0.2801,-0.25 -0.2701,-0.25 -0.25,-0.2799 -0.2401,-0.27 -0.2401,-0.3 -0.2201,-0.3 -0.2001,-0.3199 -0.19,-0.32 -0.1701,-0.33 -0.1701,-0.33 -0.13,-0.3399 -0.1301,-0.36 -0.11,-0.35 -0.09,-0.35 -0.0801,-0.3799 -0.06,-0.36 -0.05,-0.38 -0.01,-0.3699 -0.01,-0.38 0.01,-0.37 0.01,-0.3599 0.05,-0.37 0.06,-0.37 0.0801,-0.36 0.09,-0.3699 0.11,-0.36 0.1301,-0.35 0.13,-0.3399 0.1701,-0.33 0.1701,-0.34 0.19,-0.31 0.2001,-0.3199 0.2201,-0.3 0.2401,-0.28 0.2401,-0.29 0.25,-0.2799 0.2701,-0.25 0.2801,-0.25 0.3002,-0.22 0.3001,-0.21 0.3101,-0.22 0.3301,-0.1799 0.3201,-0.18 0.3401,-0.16 0.3502,-0.14 0.3501,-0.12 0.3501,-0.12 0.3601,-0.1 0.3702,-0.07 0.3601,-0.06 0.3701,-0.04 0.3802,-0.03 h 0.12 -0.4401 l -0.6803,0.03 -0.6802,0.05 -0.6803,0.06 -0.6702,0.09 -0.6803,0.1 -0.6802,0.11 -0.6603,0.14 -0.6702,0.15 -0.6602,0.17 -0.6603,0.1899 -0.6502,0.21 -0.6402,0.22 -0.6503,0.24 -0.6202,0.25 -0.6302,0.28 -0.6202,0.2899 -0.6103,0.31 -0.6102,0.32 -0.5802,0.33 -0.5902,0.3599 -0.5702,0.37 -0.5702,0.38 -0.5502,0.4099 -0.5502,0.41 -0.5302,0.43 -0.5102,0.4499 -0.5102,0.45 -0.5001,0.47 -0.4802,0.4799 -0.4702,0.5 -0.4502,0.5099 -0.4501,0.52 -0.4202,0.53 -0.4301,0.5499 -0.3902,0.55 -0.3901,0.5599 -0.3701,0.57 -0.3502,0.5899 -0.3401,0.59 -0.3301,0.6099 -0.3001,0.6 -0.2901,0.6199 -0.2701,0.63 -0.2601,0.6299 -0.2401,0.64 -0.2301,0.6499 -0.2,0.65 -0.1901,0.6599 -0.1701,0.66 -0.16,0.6599 -0.1301,0.67 -0.12,0.6799 -0.1001,0.67 -0.08,0.6799 -0.06,0.6699 -0.05,0.69 -0.02,0.6899 -0.01,0.68 0.01,0.6799 0.02,0.69 0.05,0.6799 0.06,0.68 0.08,0.6699 0.1001,0.68 0.12,0.6799 0.1301,0.6599 0.16,0.67 0.1701,0.6599 0.1901,0.65 0.2,0.6599 0.2301,0.64 0.2401,0.6399 0.2601,0.63 0.2701,0.6299 0.2901,0.62 0.3001,0.6099 0.2001,0.35 0.02,-0.01 0.8403,-0.43 0.8403,-0.4099 0.8503,-0.4 0.8603,-0.37 0.8603,-0.3799 0.8803,-0.34 0.8703,-0.32 0.8904,-0.33 0.8903,-0.2799 0.9003,-0.28 0.9003,-0.26 0.9004,-0.25 0.9103,-0.23 0.9203,-0.1999 0.9203,-0.18 0.9104,-0.18 0.9303,-0.15 0.9303,-0.14 0.9304,-0.12 0.9403,-0.1 0.9304,-0.08 0.9403,-0.07 0.9203,-0.0399 0.9604,-0.02 0.9303,-0.02 H 97.844 L 38.1725,48.0956 Z"
       fill="#ffffff"
       id="path5-8" />
    <path
       d="m 209.676,217.743 h 0.69 l 0.68,-0.04 0.681,-0.04 0.68,-0.06 0.68,-0.09 0.68,-0.1 0.671,-0.11 0.67,-0.14 0.66,-0.15 0.67,-0.17 0.651,-0.19 0.65,-0.21 0.65,-0.22 0.64,-0.24 0.621,-0.26 0.63,-0.27 0.62,-0.29 0.61,-0.31 0.61,-0.32 0.591,-0.34 0.58,-0.36 0.57,-0.37 0.57,-0.38 0.56,-0.4 0.541,-0.42 0.53,-0.42 0.52,-0.45 0.5,-0.46 0.5,-0.46 0.481,-0.49 0.47,-0.49 0.46,-0.51 0.44,-0.52 0.43,-0.529 0.42,-0.55 0.391,-0.55 0.39,-0.56 0.37,-0.58 0.35,-0.58 0.34,-0.6 0.33,-0.6 0.31,-0.61 0.29,-0.61 0.26,-0.63 0.271,-0.64 0.23,-0.63 0.23,-0.65 0.21,-0.65 0.18,-0.66 0.18,-0.66 0.15,-0.66 0.13,-0.68 0.12,-0.67 0.1,-0.67 0.08,-0.689 0.07,-0.67 0.04,-0.69 0.03,-0.68 v -0.68 -0.68 l -0.03,-0.69 -0.04,-0.68 -0.07,-0.68 -0.08,-0.67 -0.1,-0.68 -0.12,-0.68 -0.13,-0.66 -0.15,-0.67 -0.18,-0.66 -0.18,-0.65 -0.21,-0.66 -0.23,-0.65 -0.23,-0.629 -0.271,-0.63 -0.26,-0.63 -0.29,-0.62 -0.31,-0.61 -0.2,-0.37 -0.02,0.01 -0.84,0.43 -0.841,0.41 -0.85,0.4 -0.86,0.38 -0.87,0.36 -0.871,0.35 -0.87,0.32 -0.89,0.32 -0.901,0.299 -0.89,0.27 -0.89,0.26 -0.921,0.25 -0.9,0.22 -0.92,0.21 -0.921,0.19 -0.92,0.17 -0.92,0.15 -0.931,0.14 -0.93,0.12 -0.93,0.1 -0.941,0.08 -0.94,0.06 -0.94,0.05 -0.931,0.03 -0.94,0.01 h -57.521 l 59.662,16.409 0.42,0.13 0.35,0.13 0.35,0.14 0.33,0.16 0.33,0.18 0.32,0.19 0.321,0.2 0.3,0.22 0.29,0.23 0.27,0.25 0.28,0.25 0.26,0.27 0.24,0.28 0.24,0.3 0.21,0.3 0.21,0.31 0.181,0.31 0.17,0.34 0.16,0.34 0.14,0.33 0.14,0.35 0.1,0.37 0.1,0.35 0.07,0.369 0.07,0.36 0.04,0.38 0.02,0.36 0.01,0.38 -0.01,0.37 -0.02,0.38 -0.04,0.36 -0.07,0.37 -0.07,0.37 -0.1,0.36 -0.1,0.35 -0.14,0.36 -0.14,0.34 -0.16,0.34 -0.17,0.32 -0.181,0.33 -0.21,0.31 -0.21,0.3 -0.24,0.29 -0.24,0.28 -0.26,0.27 -0.28,0.26 -0.27,0.25 -0.29,0.22 -0.3,0.22 -0.321,0.21 -0.32,0.19 -0.33,0.17 -0.33,0.15 -0.35,0.15 -0.35,0.13 -0.35,0.11 -0.36,0.09 -0.36,0.08 -0.381,0.05 -0.36,0.04 -0.38,0.04 -0.37,0.01"
       fill="#ffffff"
       id="path6-9" />
    <path
       d="m 249.96,207.964 -0.04,-0.85 -0.06,-0.85 -0.09,-0.86 -0.09,-0.85 -0.12,-0.84 -0.14,-0.85 -0.15,-0.84 -0.17,-0.84 -0.19,-0.84 -0.21,-0.82 -0.221,-0.83 -0.24,-0.83 -0.26,-0.8 -0.28,-0.82 -0.3,-0.799 -0.3,-0.79 -0.33,-0.8 -0.35,-0.78 -0.35,-0.78 -0.381,-0.77 -0.4,-0.75 -0.4,-0.76 -0.43,-0.74 -0.45,-0.74 -0.45,-0.72 -0.47,-0.72 -0.491,-0.7 -0.5,-0.69 -0.52,-0.69 -0.52,-0.66 -0.55,-0.67 -0.561,-0.639 -0.57,-0.64 -0.59,-0.62 -0.59,-0.62 -0.62,-0.59 -0.621,-0.59 -0.63,-0.57 -0.65,-0.56 -0.66,-0.55 -0.04,-0.03 -0.941,0.57 -0.83,0.47 -0.86,0.47 -0.11,0.06 0.22,0.41 0.31,0.61 0.29,0.62 0.26,0.63 0.27,0.63 0.23,0.629 0.23,0.65 0.21,0.66 0.18,0.65 0.18,0.66 0.151,0.67 0.13,0.66 0.12,0.68 0.1,0.68 0.08,0.67 0.07,0.68 0.04,0.68 0.03,0.69 v 0.68 0.68 l -0.03,0.68 -0.04,0.69 -0.07,0.67 -0.08,0.69 -0.1,0.669 -0.12,0.67 -0.13,0.68 -0.151,0.66 -0.18,0.66 -0.18,0.66 -0.21,0.65 -0.23,0.65 -0.23,0.63 -0.27,0.64 -0.26,0.63 -0.29,0.61 -0.31,0.61 -0.33,0.6 -0.341,0.6 -0.35,0.58 -0.37,0.58 -0.39,0.56 -0.39,0.55 -0.42,0.55 -0.43,0.529 -0.441,0.52 -0.46,0.51 -0.47,0.49 -0.48,0.49 -0.5,0.46 -0.5,0.46 -0.521,0.45 -0.53,0.42 -0.54,0.42 -0.56,0.4 -0.57,0.38 -0.571,0.37 -0.58,0.36 -0.59,0.34 -0.61,0.32 -0.61,0.31 -0.621,0.29 -0.63,0.27 -0.62,0.26 -0.64,0.24 -0.651,0.22 -0.65,0.21 -0.65,0.19 -0.67,0.17 -0.661,0.15 -0.67,0.14 -0.67,0.11 -0.68,0.1 -0.681,0.09 -0.68,0.06 -0.68,0.04 -0.68,0.04 H 209.675 0 V 250 h 209.675 l 0.861,-0.01 0.85,-0.02 0.86,-0.05 0.851,-0.07 0.86,-0.07 0.85,-0.1 0.851,-0.13 0.84,-0.13 0.84,-0.15 0.841,-0.18 0.83,-0.19 0.83,-0.2 0.82,-0.22 0.831,-0.25 0.81,-0.25 0.81,-0.29 0.811,-0.29 0.8,-0.31 0.79,-0.32 0.78,-0.34 0.781,-0.37 0.76,-0.38 0.77,-0.389 0.741,-0.41 0.75,-0.42 0.73,-0.44 0.72,-0.47 0.721,-0.46 0.7,-0.49 0.69,-0.51 0.69,-0.51 0.671,-0.53 0.66,-0.55 0.65,-0.56 0.63,-0.56 0.621,-0.59 0.62,-0.6 0.59,-0.61 0.59,-0.63 0.57,-0.63 0.561,-0.65 0.55,-0.66 0.52,-0.67 0.52,-0.68 0.5,-0.699 0.491,-0.7 0.47,-0.72 0.45,-0.72 0.45,-0.74 0.43,-0.74 0.4,-0.75 0.4,-0.76 0.381,-0.77 0.35,-0.77 0.35,-0.79 0.33,-0.79 0.3,-0.79 0.3,-0.81 0.28,-0.81 0.26,-0.82 0.24,-0.82 0.221,-0.819 0.21,-0.84 0.19,-0.83 0.17,-0.83 0.15,-0.85 0.14,-0.84 0.12,-0.85 0.09,-0.85 0.09,-0.85 0.06,-0.86 0.04,-0.85 0.04,-0.85 v -0.86 -0.86 z"
       fill="#3d95fd"
       id="path7-1" />
    <path
       d="m 0.0400144,42.0266 0.0400144,0.86 0.0600212,0.8499 0.090033,0.8599 0.100036,0.85 0.110039,0.8399 0.140051,0.8499 0.150054,0.84 0.170061,0.8399 0.190066,0.8299 0.21008,0.83 0.22008,0.8199 0.24008,0.8299 0.2701,0.81 0.2701,0.8099 0.30011,0.8099 0.3001,0.79 0.33012,0.7999 0.35013,0.7799 0.36013,0.78 0.37013,0.7599 0.40015,0.76 0.41014,0.7599 0.42016,0.7399 0.45016,0.74 0.45016,0.7099 0.47017,0.72 0.49018,0.7099 0.50018,0.69 0.52018,0.6899 0.53019,0.66 0.5402,0.6699 0.56018,0.6399 0.5702,0.64 0.5902,0.6199 0.6003,0.61 0.6102,0.5999 0.6202,0.59 0.6302,0.5699 0.6503,0.56 0.6702,0.54 0.03,0.03 0.9403,-0.56 0.8303,-0.47 0.8604,-0.4799 0.12,-0.05 -0.2301,-0.41 -0.3001,-0.6099 -0.2901,-0.62 -0.2701,-0.6299 -0.2601,-0.63 -0.2401,-0.6399 -0.2301,-0.64 -0.2,-0.6599 -0.1901,-0.65 -0.1701,-0.6599 -0.16,-0.67 -0.1301,-0.6599 -0.12,-0.68 -0.1,-0.6799 -0.0801,-0.6699 -0.06,-0.68 -0.05,-0.6799 -0.02,-0.69 -0.01,-0.6799 0.01,-0.68 0.02,-0.6899 0.05,-0.69 0.06,-0.6699 0.0801,-0.68 0.1,-0.6699 0.12,-0.68 0.1301,-0.6699 0.16,-0.6599 0.1701,-0.66 0.1901,-0.6599 0.2,-0.65 0.2301,-0.6499 0.2401,-0.64 0.2601,-0.6299 0.2701,-0.63 0.2901,-0.6199 0.3001,-0.6 0.3301,-0.6099 0.3402,-0.59 0.3501,-0.5899 0.3701,-0.57 0.3902,-0.56 0.3901,-0.5499 0.4302,-0.55 0.4201,-0.5299 0.4502,-0.52 0.4501,-0.5099 0.4702,-0.5 0.4802,-0.48 0.5002,-0.4699 0.5101,-0.45 0.5102,-0.45 0.5302,-0.4299 0.5502,-0.41 0.5502,-0.41 0.5702,-0.3799 0.5702,-0.37 0.5902,-0.36 0.5802,-0.3299 0.6103,-0.32 0.6102,-0.31 0.6202,-0.29 0.6302,-0.2799 0.6202,-0.25 0.6503,-0.24 0.6402,-0.22 0.6502,-0.21 0.6603,-0.19 0.6602,-0.1699 0.6703,-0.15 0.6602,-0.14 0.6802,-0.11 0.6803,-0.1 0.6702,-0.09 0.6803,-0.06 0.6802,-0.05 0.6803,-0.03 H 40.3245 250 V 0 H 40.3245 39.4642 L 38.6139,0.0299976 37.7536,0.0799936 36.9033,0.149988 36.043,0.219982 35.1927,0.319974 34.3524,0.449964 33.5021,0.569954 32.6618,0.729942 31.8215,0.899928 30.9912,1.09991 30.1609,1.2999 29.3406,1.51988 28.5103,1.76986 27.7,2.01984 26.8897,2.29982 26.0894,2.58979 25.2791,2.90977 24.4988,3.22974 23.7185,3.56971 22.9383,3.93968 22.168,4.30966 l -0.7603,0.39996 -0.7503,0.40997 -0.7402,0.41997 -0.7403,0.43996 -0.7203,0.45996 -0.7202,0.46997 -0.7003,0.48996 -0.6902,0.49996 -0.6903,0.51996 -0.6602,0.52995 -0.6702,0.54996 -0.6503,0.54996 -0.6302,0.57 -0.6202,0.5899 -0.6102,0.6 -0.6003,0.6099 -0.5902,0.62 -0.5702,0.6399 -0.56018,0.65 -0.5402,0.6599 -0.53019,0.6699 -0.52018,0.68 -0.50018,0.6999 -0.49018,0.7 -0.47017,0.7099 -0.45016,0.73 -0.45016,0.7299 -0.42016,0.7499 -0.41014,0.75 -0.40015,0.7499 -0.37013,0.78 -0.36013,0.7699 -0.35013,0.7899 -0.33012,0.79 -0.3001,0.7899 -0.30011,0.7999 -0.2701,0.82 -0.2701,0.8099 -0.24008,0.82 -0.22008,0.8299 -0.21008,0.8299 -0.190066,0.84 -0.170061,0.8299 -0.150054,0.8399 -0.140051,0.85 L 0.330119,35.1972 0.230083,36.0471 0.14005,36.897 0.0800288,37.757 0.0400144,38.6069 0,39.4568 v 0.86 0.8599 z"
       fill="#0dc09d"
       id="path8-4" />
  </g>
  <text
     xml:space="preserve"
     style="font-weight:200;font-size:373.572px;font-family:'Mona Sans';-inkscape-font-specification:'Mona Sans, Ultra-Light';display:none;fill:#f9f9f9;stroke:#ffffff;stroke-width:0"
     x="1226.7816"
     y="390.72589"
     id="text2"><tspan
       sodipodi:role="line"
       x="1226.7816"
       y="390.72589"
       id="tspan3"
       style="font-style:normal;font-variant:normal;font-weight:500;font-stretch:normal;font-size:373.572px;font-family:Degular;-inkscape-font-specification:'Degular, Medium';font-variant-ligatures:normal;font-variant-caps:normal;font-variant-numeric:normal;font-variant-east-asian:normal;fill:#f9f9f9;fill-opacity:1;stroke-width:0">@seqera/node-red-seqera</tspan></text>
  <path
     style="font-weight:500;font-size:373.572px;font-family:Degular;-inkscape-font-specification:'Degular, Medium';display:inline;fill:#f9f9f9;stroke:#ffffff;stroke-width:0"
     d="m 1419.6173,253.33458 c -3.7357,-22.78789 -16.4371,-37.73077 -39.9722,-37.73077 -42.2136,0 -63.8808,47.44364 -63.8808,99.37015 0,36.61006 16.8108,52.67365 40.7194,52.67365 25.4029,0 42.2136,-18.30503 54.915,-51.9265 h 2.6151 c -0.3736,4.10929 -0.3736,7.09786 -0.3736,10.08644 0,24.28218 11.5807,41.84006 44.0815,41.84006 38.4779,0 72.0994,-31.38004 72.0994,-107.58873 0,-63.50724 -37.3572,-118.42232 -128.1352,-118.42232 -106.8416,0 -161.0096,79.19726 -161.0096,167.73382 0,87.41585 52.3001,123.65233 136.7274,123.65233 32.5008,0 58.6508,-6.35072 79.9444,-16.81074 v -22.78789 h -3.3621 c -19.0522,8.96573 -51.9266,14.94288 -75.8352,14.94288 -67.6165,0 -108.7094,-28.0179 -108.7094,-99.37015 0,-75.08797 42.9608,-141.21021 128.8823,-141.21021 78.0766,0 104.6002,42.21363 104.6002,95.26085 0,58.65081 -19.7993,80.69155 -41.8401,80.69155 -16.0636,0 -22.7879,-10.08644 -19.7993,-31.00647 l 12.3279,-94.14014 h -27.2708 l -4.8564,34.74219 z m -1.4943,22.41432 -1.4942,10.83359 c -4.4829,28.76504 -23.5351,56.78294 -49.6851,56.78294 -16.4372,0 -22.4143,-12.32787 -22.4143,-32.50076 0,-41.84006 13.8221,-70.97868 42.5872,-70.97868 22.0407,0 34.3686,13.44859 31.0064,35.86291 z m 213.3098,119.91661 c 48.5644,0 69.1108,-20.92003 69.1108,-51.92651 0,-28.01789 -16.8107,-44.45506 -66.8694,-53.42079 -34.3686,-5.60358 -43.3343,-15.31645 -43.3343,-29.13862 0,-15.31645 11.5807,-24.65575 34.7422,-24.65575 22.7879,0 35.1157,8.96573 40.7193,33.24791 l 29.8858,-6.35072 c -7.845,-31.38005 -23.9086,-51.17937 -69.858,-51.17937 -44.455,0 -66.8694,20.17289 -66.8694,50.80579 0,27.64433 16.8108,43.70793 62.013,51.92651 36.61,6.35073 48.1908,13.44859 48.1908,29.88576 -0.3736,16.81074 -12.7015,26.15004 -37.3572,26.15004 -32.8744,0 -45.5758,-16.0636 -51.553,-38.85149 l -29.5121,5.97715 c 7.0978,34.7422 26.15,57.53009 80.6915,57.53009 z m 179.6884,-0.37357 c 45.2022,0 67.6165,-20.92003 76.2087,-54.16794 l -28.3915,-7.84501 c -5.6036,19.42574 -16.4372,35.11577 -47.8172,35.11577 -33.6215,0 -52.3001,-19.42575 -54.9151,-54.91509 h 131.4973 c 0.7472,-7.84501 1.1208,-15.31645 1.1208,-20.92003 0,-48.19078 -26.1501,-80.31798 -78.4502,-80.31798 -52.6736,0 -86.6687,34.7422 -86.6687,93.01943 0,57.90366 33.2479,90.03085 87.4159,90.03085 z m -54.5415,-105.3473 c 3.7357,-34.7422 22.4143,-51.92651 53.0472,-51.92651 32.5008,0 47.4436,18.6786 48.9379,51.92651 z m 156.5266,14.56931 c 0,59.02437 25.0294,91.15156 66.1223,91.15156 33.995,0 55.2886,-21.2936 63.8808,-50.80579 h 2.2414 v 106.84159 h 32.5008 V 216.72453 h -32.5008 v 45.94935 h -2.2414 c -8.9657,-29.51218 -28.3915,-50.43222 -62.013,-50.43222 -43.7079,0 -67.9901,32.87434 -67.9901,92.27229 z m 132.2445,-6.7243 v 13.44859 c 0,32.87434 -20.1729,55.66223 -51.1793,55.66223 -32.8744,0 -48.938,-20.54646 -48.938,-62.38652 0,-42.58721 15.6901,-62.7601 48.938,-62.7601 31.38,0 51.1793,21.66718 51.1793,56.0358 z m 154.659,97.50229 c 45.2022,0 67.6165,-20.92003 76.2087,-54.16794 l -28.3915,-7.84501 c -5.6036,19.42574 -16.4372,35.11577 -47.8172,35.11577 -33.6215,0 -52.3001,-19.42575 -54.9151,-54.91509 h 131.4974 c 0.7471,-7.84501 1.1207,-15.31645 1.1207,-20.92003 0,-48.19078 -26.1501,-80.31798 -78.4501,-80.31798 -52.6737,0 -86.6687,34.7422 -86.6687,93.01943 0,57.90366 33.2479,90.03085 87.4158,90.03085 z m -54.5415,-105.3473 c 3.7357,-34.7422 22.4143,-51.92651 53.0472,-51.92651 32.5008,0 47.4437,18.6786 48.9379,51.92651 z m 198.7403,-23.90861 v -49.3115 h -31.3801 v 174.45812 h 32.5008 v -86.29513 c 0,-39.22506 15.3165,-54.16794 53.0472,-54.16794 h 8.9658 v -35.86291 h -6.7243 c -26.8972,0 -44.8287,13.82216 -53.7944,51.55293 z m 135.2325,128.88234 c 31.0065,0 53.0472,-16.43717 62.013,-45.20221 h 3.3621 v 41.46649 h 31.0065 V 279.48462 c 0,-43.33435 -21.2936,-66.86938 -69.858,-66.86938 -41.84,0 -66.8693,20.54646 -73.9672,54.16793 l 30.6329,7.47144 c 5.6036,-23.16146 18.6786,-34.74219 42.2136,-34.74219 28.3915,0 38.4779,14.19574 38.4779,40.34577 v 14.19574 h -56.0358 c -42.9607,0 -62.0129,22.04075 -62.0129,52.30008 0,33.62148 21.2936,48.56436 54.1679,48.56436 z m 63.8808,-78.45012 v 9.71287 c 0,24.65575 -20.5464,42.58721 -52.6736,42.58721 -25.7765,0 -34.3686,-12.32788 -34.3686,-26.15004 0,-17.18431 13.075,-26.15004 35.8629,-26.15004 z m 92.6459,131.12377 74.7144,-296.24259 h -32.8743 l -75.4616,296.24259 z m 132.9913,-185.66528 v -45.20221 h -31.7536 v 174.45812 h 32.5008 v -99.74372 c 0,-29.88576 20.92,-49.68508 51.9265,-49.68508 28.0179,0 37.7307,17.93146 37.7307,41.84006 v 107.58874 h 32.5008 V 275.7489 c 0,-38.10434 -17.5579,-63.50724 -56.4094,-63.50724 -30.2593,0 -53.4208,18.6786 -63.1336,49.68508 z m 243.5688,133.73877 c 55.2886,0 87.4158,-35.48934 87.4158,-92.27228 0,-57.15651 -34.7422,-91.15157 -87.4158,-91.15157 -52.6737,0 -87.4159,33.99506 -87.4159,91.15157 0,56.78294 32.1272,92.27228 87.4159,92.27228 z m 0,-155.40595 c 35.8629,0 54.915,23.53504 54.915,62.7601 0,39.22506 -18.305,64.25438 -55.2886,64.25438 -36.9836,0 -54.5415,-25.02932 -54.5415,-64.25438 0,-39.22506 19.0522,-62.7601 54.9151,-62.7601 z m 111.3242,64.25439 c 0,59.02437 24.2822,91.15156 66.8694,91.15156 32.8744,0 54.5415,-21.2936 63.1337,-51.17936 h 2.2414 v 46.6965 h 32.5008 V 151.34943 h -32.5008 v 111.69802 h -2.2414 c -8.5922,-29.88575 -28.0179,-50.80579 -62.3865,-50.80579 -42.5872,0 -67.6166,32.87434 -67.6166,92.27229 z m 132.2445,6.72429 c 0,33.99505 -20.1729,55.28866 -51.1793,55.28866 -33.248,0 -48.938,-20.17289 -48.938,-62.01295 0,-42.58721 16.0636,-62.7601 48.938,-62.7601 31.38,0 51.1793,22.78789 51.1793,56.0358 z m 154.6589,84.0537 c 45.2022,0 67.6166,-20.92003 76.2087,-54.16794 l -28.3915,-7.84501 c -5.6035,19.42574 -16.4371,35.11577 -47.8172,35.11577 -33.6215,0 -52.3001,-19.42575 -54.9151,-54.91509 h 131.4974 c 0.7471,-7.84501 1.1207,-15.31645 1.1207,-20.92003 0,-48.19078 -26.15,-80.31798 -78.4501,-80.31798 -52.6737,0 -86.6687,34.7422 -86.6687,93.01943 0,57.90366 33.2479,90.03085 87.4158,90.03085 z m -54.5415,-105.3473 c 3.7357,-34.7422 22.4143,-51.92651 53.0472,-51.92651 32.5008,0 47.4437,18.6786 48.938,51.92651 z m 152.4175,-4.85644 v 31.00648 h 115.0602 V 285.0882 Z m 177.0732,-19.05217 v -49.3115 h -31.3801 v 174.45812 h 32.5008 v -86.29513 c 0,-39.22506 15.3164,-54.16794 53.0472,-54.16794 h 8.9657 v -35.86291 h -6.7242 c -26.8972,0 -44.8287,13.82216 -53.7944,51.55293 z m 167.3602,129.25591 c 45.2022,0 67.6165,-20.92003 76.2086,-54.16794 l -28.3914,-7.84501 c -5.6036,19.42574 -16.4372,35.11577 -47.8172,35.11577 -33.6215,0 -52.3001,-19.42575 -54.9151,-54.91509 h 131.4973 c 0.7472,-7.84501 1.1207,-15.31645 1.1207,-20.92003 0,-48.19078 -26.15,-80.31798 -78.4501,-80.31798 -52.6736,0 -86.6687,34.7422 -86.6687,93.01943 0,57.90366 33.2479,90.03085 87.4159,90.03085 z m -54.5416,-105.3473 c 3.7358,-34.7422 22.4144,-51.92651 53.0473,-51.92651 32.5007,0 47.4436,18.6786 48.9379,51.92651 z m 156.5266,14.56931 c 0,59.02437 24.2822,91.15156 66.8694,91.15156 32.8743,0 54.5415,-21.2936 63.1336,-51.17936 h 2.2415 v 46.6965 h 32.5007 V 151.34943 h -32.5007 v 111.69802 h -2.2415 c -8.5921,-29.88575 -28.0179,-50.80579 -62.3865,-50.80579 -42.5872,0 -67.6165,32.87434 -67.6165,92.27229 z m 132.2445,6.72429 c 0,33.99505 -20.1729,55.28866 -51.1794,55.28866 -33.2479,0 -48.9379,-20.17289 -48.9379,-62.01295 0,-42.58721 16.0636,-62.7601 48.9379,-62.7601 31.3801,0 51.1794,22.78789 51.1794,56.0358 z m 63.134,-26.15004 v 31.00648 h 115.0602 V 285.0882 Z m 213.3096,110.57731 c 48.5644,0 69.1109,-20.92003 69.1109,-51.92651 0,-28.01789 -16.8108,-44.45506 -66.8694,-53.42079 -34.3687,-5.60358 -43.3344,-15.31645 -43.3344,-29.13862 0,-15.31645 11.5808,-24.65575 34.7422,-24.65575 22.7879,0 35.1158,8.96573 40.7194,33.24791 l 29.8857,-6.35072 c -7.845,-31.38005 -23.9086,-51.17937 -69.8579,-51.17937 -44.4551,0 -66.8694,20.17289 -66.8694,50.80579 0,27.64433 16.8107,43.70793 62.0129,51.92651 36.6101,6.35073 48.1908,13.44859 48.1908,29.88576 -0.3736,16.81074 -12.7014,26.15004 -37.3572,26.15004 -32.8743,0 -45.5758,-16.0636 -51.5529,-38.85149 l -29.5122,5.97715 c 7.0979,34.7422 26.15,57.53009 80.6915,57.53009 z m 179.6884,-0.37357 c 45.2022,0 67.6166,-20.92003 76.2087,-54.16794 l -28.3915,-7.84501 c -5.6035,19.42574 -16.4371,35.11577 -47.8172,35.11577 -33.6215,0 -52.3001,-19.42575 -54.9151,-54.91509 h 131.4974 c 0.7471,-7.84501 1.1207,-15.31645 1.1207,-20.92003 0,-48.19078 -26.15,-80.31798 -78.4501,-80.31798 -52.6737,0 -86.6687,34.7422 -86.6687,93.01943 0,57.90366 33.2479,90.03085 87.4158,90.03085 z m -54.5415,-105.3473 c 3.7357,-34.7422 22.4143,-51.92651 53.0472,-51.92651 32.5008,0 47.4437,18.6786 48.938,51.92651 z m 156.5266,14.56931 c 0,59.02437 25.0293,91.15156 66.1222,91.15156 33.9951,0 55.2887,-21.2936 63.8808,-50.80579 h 2.2414 v 106.84159 h 32.5008 V 216.72453 h -32.5008 v 45.94935 h -2.2414 c -8.9657,-29.51218 -28.3915,-50.43222 -62.0129,-50.43222 -43.708,0 -67.9901,32.87434 -67.9901,92.27229 z m 132.2444,-6.7243 v 13.44859 c 0,32.87434 -20.1728,55.66223 -51.1793,55.66223 -32.8744,0 -48.938,-20.54646 -48.938,-62.38652 0,-42.58721 15.6901,-62.7601 48.938,-62.7601 31.38,0 51.1793,21.66718 51.1793,56.0358 z m 154.6592,97.50229 c 45.2022,0 67.6165,-20.92003 76.2087,-54.16794 l -28.3915,-7.84501 c -5.6036,19.42574 -16.4372,35.11577 -47.8172,35.11577 -33.6215,0 -52.3001,-19.42575 -54.9151,-54.91509 h 131.4974 c 0.7471,-7.84501 1.1207,-15.31645 1.1207,-20.92003 0,-48.19078 -26.1501,-80.31798 -78.4501,-80.31798 -52.6737,0 -86.6687,34.7422 -86.6687,93.01943 0,57.90366 33.2479,90.03085 87.4158,90.03085 z m -54.5415,-105.3473 c 3.7357,-34.7422 22.4143,-51.92651 53.0472,-51.92651 32.5008,0 47.4437,18.6786 48.9379,51.92651 z m 198.7402,-23.90861 v -49.3115 h -31.3801 v 174.45812 h 32.5008 v -86.29513 c 0,-39.22506 15.3164,-54.16794 53.0472,-54.16794 h 8.9657 v -35.86291 h -6.7243 c -26.8971,0 -44.8286,13.82216 -53.7943,51.55293 z m 135.2324,128.88234 c 31.0065,0 53.0472,-16.43717 62.0129,-45.20221 h 3.3622 v 41.46649 h 31.0065 V 279.48462 c 0,-43.33435 -21.2936,-66.86938 -69.858,-66.86938 -41.8401,0 -66.8694,20.54646 -73.9673,54.16793 l 30.6329,7.47144 c 5.6036,-23.16146 18.6786,-34.74219 42.2137,-34.74219 28.3914,0 38.4779,14.19574 38.4779,40.34577 v 14.19574 h -56.0358 c -42.9608,0 -62.013,22.04075 -62.013,52.30008 0,33.62148 21.2936,48.56436 54.168,48.56436 z m 63.8808,-78.45012 v 9.71287 c 0,24.65575 -20.5465,42.58721 -52.6737,42.58721 -25.7764,0 -34.3686,-12.32788 -34.3686,-26.15004 0,-17.18431 13.075,-26.15004 35.8629,-26.15004 z"
     id="text2-9"
     aria-label="@seqera/node-red-seqera" />
</svg>
