<?xml version="1.0" encoding="UTF-8" standalone="no"?>
<!-- Created with Inkscape (http://www.inkscape.org/) -->

<svg
   height="593.9455"
   width="5204.9395"
   version="1.1"
   viewBox="0 0 5204.9396 593.94548"
   id="svg2"
   sodipodi:docname="logo-dark.svg"
   inkscape:version="1.3.2 (091e20e, 2023-11-25)"
   xml:space="preserve"
   xmlns:inkscape="http://www.inkscape.org/namespaces/inkscape"
   xmlns:sodipodi="http://sodipodi.sourceforge.net/DTD/sodipodi-0.dtd"
   xmlns="http://www.w3.org/2000/svg"
   xmlns:svg="http://www.w3.org/2000/svg"
   xmlns:rdf="http://www.w3.org/1999/02/22-rdf-syntax-ns#"
   xmlns:cc="http://creativecommons.org/ns#"
   xmlns:dc="http://purl.org/dc/elements/1.1/"><defs
     id="defs2"><clipPath
       id="clip0_934_9493"><rect
         width="250"
         height="250"
         fill="#ffffff"
         id="rect8"
         x="0"
         y="0" /></clipPath></defs><sodipodi:namedview
     id="namedview2"
     pagecolor="#505050"
     bordercolor="#eeeeee"
     borderopacity="1"
     inkscape:showpageshadow="0"
     inkscape:pageopacity="0"
     inkscape:pagecheckerboard="0"
     inkscape:deskcolor="#505050"
     inkscape:zoom="0.19560622"
     inkscape:cx="2318.4335"
     inkscape:cy="460.10808"
     inkscape:window-width="2032"
     inkscape:window-height="1133"
     inkscape:window-x="0"
     inkscape:window-y="247"
     inkscape:window-maximized="0"
     inkscape:current-layer="svg2"><inkscape:page
       x="0"
       y="0"
       width="5204.9395"
       height="593.9455"
       id="page4"
       margin="0"
       bleed="0" /></sodipodi:namedview><title
     id="title1">Node-RED Icon</title><metadata
     id="metadata1"><rdf:RDF><cc:Work
         rdf:about=""><dc:format>image/svg+xml</dc:format><dc:type
           rdf:resource="http://purl.org/dc/dcmitype/StillImage" /><dc:title>Node-RED Icon</dc:title><cc:license
           rdf:resource="http://creativecommons.org/licenses/by/3.0/" /><dc:creator><cc:Agent><dc:title>Nick O'Leary</dc:title></cc:Agent></dc:creator></cc:Work><cc:License
         rdf:about="http://creativecommons.org/licenses/by/3.0/"><cc:permits
           rdf:resource="http://creativecommons.org/ns#Reproduction" /><cc:permits
           rdf:resource="http://creativecommons.org/ns#Distribution" /><cc:requires
           rdf:resource="http://creativecommons.org/ns#Notice" /><cc:requires
           rdf:resource="http://creativecommons.org/ns#Attribution" /><cc:permits
           rdf:resource="http://creativecommons.org/ns#DerivativeWorks" /></cc:License></rdf:RDF></metadata><g
     transform="translate(83.560023,-511.58907)"
     id="g2"><rect
       style="color:#000000;isolation:auto;mix-blend-mode:normal;solid-color:#000000;color-rendering:auto;image-rendering:auto;shape-rendering:auto"
       ry="56"
       height="448"
       width="448"
       y="588.35999"
       x="16"
       fill="#8f0000"
       id="rect1" /><g
       transform="matrix(8.545,0,0,8.545,-786.19,-1949.8)"
       id="g1"><path
         style="color:#000000;text-indent:0;text-decoration-line:none;text-decoration-style:solid;text-decoration-color:#000000;text-transform:none;white-space:normal;isolation:auto;mix-blend-mode:normal;solid-color:#000000;color-rendering:auto;image-rendering:auto;shape-rendering:auto"
         d="m 104.41,321.21 c 0.0138,-2.3846 -1.905,-4.2806 -4.2896,-4.2806 h -6.243 v 2.9257 h 6.243 c 0.80513,0 1.4808,0.58383 1.4808,1.389 v 4.2422 c 0,0.80513 -0.67566,1.5075 -1.4808,1.5075 h -6.243 v 2.8086 h 6.243 c 2.3846,0 4.2895,-1.9315 4.2895,-4.3162 l -5e-5,-1.9812 c 9.8659,0.14125 12.737,2.7065 15.877,5.4519 3.0241,2.6446 6.4153,5.4869 15.252,5.557 l 4.6e-4,0.97238 c 0.001,2.3846 1.9543,4.3803 4.3389,4.3803 h 6.4273 v -3.0427 h -6.4273 c -0.80514,0 -1.4135,-0.53255 -1.4135,-1.3377 v -4.2422 c 0,-0.80513 0.60835,-1.4418 1.4135,-1.4418 h 6.4273 v -2.8086 h -6.4273 c -2.3846,0 -4.3379,1.8658 -4.3389,4.2504 l -4.5e-4,1.005 c -8.351,-0.0276 -10.723,-2.3434 -13.76,-4.9992 -2.5914,-2.2662 -5.6368,-4.7578 -12.346,-5.6642 0.0583,-0.0501 0.11211,-0.0987 0.16838,-0.15027 1.2918,-1.1846 1.9884,-2.6158 2.6699,-3.8516 0.68148,-1.2357 1.3227,-2.267 2.373,-2.9879 0.85207,-0.58483 2.0639,-1.0208 3.926,-1.1017 l 1.8e-4,0.99192 c 4.3e-4,2.3846 1.9236,4.4325 4.3083,4.4325 h 17.242 c 2.3846,0 4.3127,-2.0479 4.3127,-4.4325 v -4.2422 c 0,-2.3846 -1.9281,-4.3153 -4.3127,-4.3153 h -17.242 c -2.3846,0 -4.3095,1.9306 -4.3083,4.3153 l 5.1e-4,0.98395 c -2.2474,0.0903 -3.9508,0.6357 -5.2079,1.4985 -1.5245,1.0464 -2.3662,2.4764 -3.0762,3.7637 -0.70992,1.2873 -1.3108,2.4408 -2.2188,3.2734 -0.79034,0.72475 -1.8834,1.2844 -3.658,1.493 z m 18.468,-12.356 h 17.242 c 0.80514,0 1.387,0.58455 1.387,1.3897 v 4.2422 c 0,0.80514 -0.5819,1.3898 -1.387,1.3898 h -17.242 c -0.80514,0 -1.4994,-0.58462 -1.4994,-1.3898 v -4.2422 c 0,-0.80513 0.69431,-1.3897 1.4994,-1.3897 z"
         fill="#ffffff"
         id="path1" /></g></g><text
     xml:space="preserve"
     style="font-weight:200;font-size:373.572px;font-family:'Mona Sans';-inkscape-font-specification:'Mona Sans, Ultra-Light';fill:#ffffff;stroke:#ffffff;stroke-width:0;fill-opacity:1"
     x="1226.7816"
     y="390.72589"
     id="text2"><tspan
       sodipodi:role="line"
       x="1226.7816"
       y="390.72589"
       id="tspan3"
       style="font-style:normal;font-variant:normal;font-weight:500;font-stretch:normal;font-size:373.572px;font-family:Degular;-inkscape-font-specification:'Degular, Medium';font-variant-ligatures:normal;font-variant-caps:normal;font-variant-numeric:normal;font-variant-east-asian:normal;fill:#ffffff;fill-opacity:1;stroke-width:0">node-red-contrib-seqera</tspan></text><g
     style="fill:none"
     id="g3"
     transform="matrix(1.7910163,0,0,1.7910163,672.06368,75.505705)"><path
       d="m 212.237,129.43 0.35,0.14 0.35,0.14 0.33,0.16 0.33,0.18 0.32,0.18 0.321,0.2 0.3,0.23 0.29,0.22 0.27,0.25 0.28,0.25 0.26,0.28 0.24,0.27 0.24,0.3 0.21,0.3 0.21,0.32 0.181,0.309 0.17,0.34 0.16,0.33 0.14,0.34 0.14,0.35 0.1,0.36 0.1,0.35 0.07,0.38 0.07,0.36 0.04,0.38 0.02,0.36 0.01,0.37 -0.01,0.38 -0.02,0.37 -0.04,0.37 -0.07,0.37 -0.07,0.36 -0.1,0.37 -0.1,0.35 -0.14,0.36 -0.14,0.34 -0.16,0.33 -0.17,0.33 -0.181,0.32 -0.21,0.32 -0.21,0.3 -0.24,0.28 -0.24,0.29 -0.26,0.26 -0.28,0.27 -0.27,0.25 -0.29,0.22 -0.3,0.21 -0.321,0.22 -0.32,0.18 -0.33,0.18 -0.33,0.15 -0.35,0.15 -0.35,0.12 -0.35,0.12 -0.36,0.08 -0.36,0.09 -0.381,0.05 -0.36,0.04 -0.38,0.04 h -0.06 l 0.38,-0.01 0.68,-0.03 0.681,-0.04 0.68,-0.06 0.67,-0.09 0.68,-0.1 0.671,-0.11 0.67,-0.14 0.66,-0.15 0.67,-0.17 0.661,-0.19 0.65,-0.21 0.64,-0.22 0.64,-0.24 0.631,-0.26 0.63,-0.27 0.62,-0.29 0.61,-0.31 0.6,-0.32 0.591,-0.34 0.58,-0.36 0.58,-0.36 0.56,-0.38 0.56,-0.41 0.541,-0.42 0.53,-0.42 0.52,-0.45 0.51,-0.46 0.49,-0.46 0.491,-0.49 0.47,-0.49 0.45,-0.51 0.44,-0.52 0.43,-0.53 0.42,-0.55 0.401,-0.55 0.38,-0.56 0.38,-0.58 0.35,-0.579 0.34,-0.6 0.33,-0.6 0.3,-0.6 0.29,-0.62 0.27,-0.63 0.261,-0.63 0.24,-0.64 0.23,-0.65 0.2,-0.65 0.19,-0.66 0.17,-0.66 0.15,-0.66 0.14,-0.68 0.12,-0.67 0.1,-0.67 0.07,-0.68 0.07,-0.68 0.05,-0.69 0.02,-0.679 0.01,-0.68 -0.01,-0.68 -0.02,-0.69 -0.05,-0.68 -0.07,-0.68 -0.07,-0.67 -0.1,-0.68 -0.12,-0.68 -0.14,-0.66 -0.15,-0.67 -0.13,-0.51 h -24.319 l -0.48,0.01 h -57.521 l 59.662,16.409 z"
       fill="#ffffff"
       id="path1-6" /><path
       d="m 249.96,135.379 -0.05,-0.86 -0.06,-0.85 -0.08,-0.859 -0.1,-0.85 -0.11,-0.84 -0.14,-0.85 -0.16,-0.84 -0.16,-0.84 -0.19,-0.83 -0.21,-0.83 -0.221,-0.83 -0.25,-0.82 -0.26,-0.81 -0.27,-0.82 -0.3,-0.8 -0.31,-0.79 -0.33,-0.8 -0.34,-0.779 -0.36,-0.78 -0.371,-0.77 -0.4,-0.75 -0.41,-0.76 -0.43,-0.74 -0.44,-0.74 -0.45,-0.72 -0.48,-0.72 -0.481,-0.7 -0.5,-0.69 -0.17,-0.22 h -7.453 l 0.13,0.51 0.151,0.67 0.14,0.66 0.12,0.68 0.1,0.68 0.07,0.67 0.07,0.68 0.05,0.68 0.02,0.69 0.01,0.68 -0.01,0.68 -0.02,0.679 -0.05,0.69 -0.07,0.68 -0.07,0.68 -0.1,0.67 -0.12,0.67 -0.14,0.68 -0.151,0.66 -0.17,0.66 -0.19,0.66 -0.2,0.65 -0.23,0.65 -0.24,0.64 -0.26,0.63 -0.27,0.63 -0.29,0.62 -0.3,0.6 -0.33,0.6 -0.341,0.6 -0.35,0.579 -0.38,0.58 -0.38,0.56 -0.4,0.55 -0.42,0.55 -0.43,0.53 -0.441,0.52 -0.45,0.51 -0.47,0.49 -0.49,0.49 -0.49,0.46 -0.51,0.46 -0.521,0.45 -0.53,0.42 -0.54,0.42 -0.56,0.41 -0.56,0.38 -0.581,0.36 -0.58,0.36 -0.59,0.34 -0.6,0.32 -0.61,0.31 -0.621,0.29 -0.63,0.27 -0.63,0.26 -0.64,0.24 -0.641,0.22 -0.65,0.21 -0.66,0.19 -0.67,0.17 -0.661,0.15 -0.67,0.14 -0.67,0.11 -0.68,0.1 -0.671,0.09 -0.68,0.06 -0.68,0.04 -0.68,0.03 -0.691,0.01 H 0 v 32.257 h 209.675 l 0.861,-0.01 0.85,-0.02 0.86,-0.05 0.851,-0.07 0.85,-0.08 0.85,-0.09 0.851,-0.13 0.84,-0.13 0.84,-0.15 0.841,-0.18 0.84,-0.19 0.82,-0.2 0.83,-0.23 0.831,-0.24 0.81,-0.25 0.81,-0.29 0.801,-0.29 0.8,-0.31 0.79,-0.32 0.78,-0.34 0.781,-0.37 0.77,-0.38 0.76,-0.39 0.751,-0.41 0.74,-0.42 0.74,-0.45 0.71,-0.45 0.721,-0.469 0.71,-0.49 0.69,-0.5 0.68,-0.52 0.671,-0.53 0.67,-0.55 0.65,-0.56 0.63,-0.56 0.621,-0.59 0.61,-0.6 0.6,-0.61 0.58,-0.63 0.58,-0.63 0.561,-0.65 0.54,-0.66 0.53,-0.67 0.52,-0.69 0.5,-0.69 0.481,-0.7 0.48,-0.72 0.45,-0.72 0.44,-0.739 0.43,-0.74 0.41,-0.75 0.4,-0.76 0.371,-0.77 0.36,-0.77 0.34,-0.79 0.33,-0.79 0.31,-0.79 0.3,-0.81 0.27,-0.81 0.26,-0.81 0.25,-0.83 0.221,-0.82 0.21,-0.83 0.19,-0.84 0.16,-0.829 0.16,-0.84 0.14,-0.85 0.11,-0.85 0.1,-0.85 0.08,-0.85 0.06,-0.86 0.05,-0.85 0.03,-0.85 0.01,-0.86 -0.01,-0.86 z"
       fill="#fa6863"
       id="path2-3" /><path
       d="m 37.7624,120.54 -0.3501,-0.13 -0.3502,-0.14 -0.3301,-0.16 -0.3401,-0.18 -0.3101,-0.19 -0.3201,-0.2 -0.3001,-0.22 -0.2902,-0.23 -0.2801,-0.25 -0.2701,-0.25 -0.26,-0.27 -0.2401,-0.28 -0.2401,-0.299 -0.2101,-0.3 -0.2101,-0.31 -0.18,-0.31 -0.1701,-0.34 -0.1701,-0.34 -0.13,-0.33 -0.1401,-0.35 -0.1,-0.37 -0.1,-0.35 -0.0801,-0.37 -0.06,-0.36 -0.04,-0.38 -0.02,-0.36 -0.01,-0.38 0.01,-0.37 0.02,-0.38 0.04,-0.36 0.06,-0.37 0.0801,-0.37 0.1,-0.36 0.1,-0.35 0.1401,-0.36 0.13,-0.34 0.1701,-0.34 0.1701,-0.32 0.18,-0.33 0.2101,-0.31 0.2101,-0.3 0.2401,-0.29 0.2401,-0.28 0.26,-0.27 0.2701,-0.26 0.2801,-0.25 0.2902,-0.22 0.3001,-0.22 0.3201,-0.21 0.3101,-0.19 0.3401,-0.17 0.3301,-0.15 0.3502,-0.149 0.3501,-0.13 0.3501,-0.11 0.3601,-0.09 0.3602,-0.08 0.3801,-0.05 0.3601,-0.04 0.3702,-0.04 h 0.07 -0.3801 l -0.6803,0.03 -0.6802,0.05 -0.6803,0.06 -0.6702,0.08 -0.6803,0.1 -0.6802,0.12 -0.6603,0.13 -0.6702,0.159 -0.6602,0.17 -0.6603,0.19 -0.6502,0.21 -0.6402,0.22 -0.6503,0.23 -0.6202,0.26 -0.6302,0.28 -0.6202,0.29 -0.6103,0.31 -0.6102,0.32 -0.5802,0.33 -0.5802,0.36 -0.5802,0.37 -0.5702,0.38 -0.5502,0.41 -0.5502,0.41 -0.5202,0.43 -0.5202,0.44 -0.5102,0.46 -0.4901,0.47 -0.4902,0.48 -0.4702,0.5 -0.4502,0.5 -0.4501,0.52 -0.4202,0.54 -0.4301,0.54 -0.3902,0.55 -0.3901,0.57 -0.3701,0.57 -0.3502,0.59 -0.3401,0.589 -0.3301,0.61 -0.3001,0.6 -0.2901,0.62 -0.2701,0.63 -0.2601,0.63 -0.2401,0.64 -0.2301,0.65 -0.2,0.65 -0.1901,0.66 -0.1701,0.65 -0.15,0.67 -0.1401,0.67 -0.12,0.68 -0.1001,0.67 -0.07,0.68 -0.07,0.67 -0.05,0.69 -0.02,0.68 -0.01,0.679 0.01,0.69 0.02,0.68 0.05,0.68 0.07,0.68 0.07,0.68 0.1001,0.68 0.12,0.67 0.1401,0.67 0.15,0.66 0.1301,0.52 h 24.3187 l 0.4802,-0.01 H 97.844 L 38.1825,120.67 Z"
       fill="#ffffff"
       id="path3-2" /><path
       d="m 0.0400144,114.601 0.0400144,0.86 0.0700252,0.85 0.080029,0.85 0.100036,0.85 0.110039,0.85 0.140051,0.84 0.150054,0.85 0.170061,0.84 0.190066,0.83 0.21008,0.83 0.22008,0.83 0.25009,0.82 0.26009,0.809 0.2701,0.81 0.30011,0.81 0.31011,0.79 0.33012,0.8 0.34012,0.78 0.36013,0.78 0.37013,0.76 0.40015,0.76 0.41014,0.76 0.43016,0.74 0.44016,0.73 0.45016,0.72 0.47017,0.72 0.49018,0.71 0.50018,0.69 0.17006,0.22 h 7.45269 l -0.1301,-0.52 -0.15,-0.66 -0.1401,-0.67 -0.12,-0.67 -0.1,-0.68 -0.0701,-0.68 -0.07,-0.68 -0.05,-0.68 -0.02,-0.68 -0.01,-0.69 0.01,-0.68 0.02,-0.68 0.05,-0.69 0.07,-0.67 0.0701,-0.68 0.1,-0.67 0.12,-0.68 0.1401,-0.669 0.15,-0.67 0.1701,-0.65 0.1901,-0.66 0.2,-0.65 0.2301,-0.65 0.2401,-0.64 0.2601,-0.63 0.2701,-0.63 0.2901,-0.62 0.3001,-0.6 0.3301,-0.61 0.3402,-0.59 0.3501,-0.59 0.3701,-0.57 0.3902,-0.57 0.3901,-0.55 0.4302,-0.54 0.4201,-0.54 0.4502,-0.52 0.4501,-0.5 0.4702,-0.5 0.4902,-0.479 0.4902,-0.47 0.5101,-0.46 0.5202,-0.44 0.5202,-0.43 0.5502,-0.41 0.5502,-0.41 0.5702,-0.38 0.5802,-0.37 0.5802,-0.36 0.5802,-0.33 0.6103,-0.32 0.6102,-0.31 0.6202,-0.29 0.6302,-0.28 0.6202,-0.26 0.6503,-0.23 0.6402,-0.22 0.6502,-0.21 0.6603,-0.19 0.6602,-0.17 0.6703,-0.16 0.6602,-0.13 0.6802,-0.12 0.6803,-0.1 0.6702,-0.08 0.6803,-0.06 0.6802,-0.05 0.6803,-0.03 0.6902,-0.01 H 250 V 72.5747 H 40.3245 l -0.8603,0.01 -0.8503,0.02 -0.8603,0.05 -0.8503,0.06 -0.8603,0.08 -0.8403,0.1 -0.8503,0.12 -0.8403,0.13 -0.8403,0.1599 -0.8503,0.17 -0.8303,0.19 -0.8303,0.21 -0.8203,0.22 -0.8303,0.25 -0.8103,0.2499 -0.8103,0.28 -0.8003,0.29 -0.8003,0.32 -0.7903,0.3199 -0.7803,0.34 -0.7802,0.37 -0.7703,0.38 -0.7603,0.3799 -0.7503,0.42 -0.7402,0.42 -0.7403,0.4399 -0.7203,0.46 -0.7202,0.4699 -0.7003,0.49 -0.6902,0.5 -0.6903,0.5099 -0.6602,0.53 -0.6702,0.5499 -0.6503,0.56 -0.6302,0.57 -0.6202,0.5899 -0.6102,0.59 -0.6003,0.6199 -0.5902,0.63 -0.5702,0.6299 -0.56018,0.65 -0.5402,0.6599 -0.53019,0.6699 -0.52018,0.68 -0.50018,0.6999 -0.49018,0.7 -0.47017,0.7099 -0.45016,0.73 -0.44016,0.7399 -0.43016,0.7399 -0.41014,0.74 -0.40015,0.7599 -0.37013,0.78 -0.36013,0.7699 -0.34012,0.7899 -0.33012,0.78 -0.31011,0.7999 -0.30011,0.8 -0.2701,0.8094 -0.26009,0.82 -0.25009,0.82 -0.22008,0.83 -0.21008,0.83 -0.190066,0.84 -0.170061,0.83 -0.150054,0.84 -0.140051,0.85 -0.110039,0.85 -0.100036,0.85 -0.080029,0.85 -0.0700252,0.85 -0.0400144,0.85 L 0,112.032 v 0.859 0.86 z"
       fill="#f18046"
       id="path4-6" /><path
       d="m 37.7624,47.9756 -0.3501,-0.14 -0.3502,-0.15 -0.3401,-0.15 -0.3201,-0.18 -0.3301,-0.18 -0.3101,-0.1999 -0.3001,-0.23 -0.3002,-0.22 -0.2801,-0.25 -0.2701,-0.25 -0.25,-0.2799 -0.2401,-0.27 -0.2401,-0.3 -0.2201,-0.3 -0.2001,-0.3199 -0.19,-0.32 -0.1701,-0.33 -0.1701,-0.33 -0.13,-0.3399 -0.1301,-0.36 -0.11,-0.35 -0.09,-0.35 -0.0801,-0.3799 -0.06,-0.36 -0.05,-0.38 -0.01,-0.3699 -0.01,-0.38 0.01,-0.37 0.01,-0.3599 0.05,-0.37 0.06,-0.37 0.0801,-0.36 0.09,-0.3699 0.11,-0.36 0.1301,-0.35 0.13,-0.3399 0.1701,-0.33 0.1701,-0.34 0.19,-0.31 0.2001,-0.3199 0.2201,-0.3 0.2401,-0.28 0.2401,-0.29 0.25,-0.2799 0.2701,-0.25 0.2801,-0.25 0.3002,-0.22 0.3001,-0.21 0.3101,-0.22 0.3301,-0.1799 0.3201,-0.18 0.3401,-0.16 0.3502,-0.14 0.3501,-0.12 0.3501,-0.12 0.3601,-0.1 0.3702,-0.07 0.3601,-0.06 0.3701,-0.04 0.3802,-0.03 h 0.12 -0.4401 l -0.6803,0.03 -0.6802,0.05 -0.6803,0.06 -0.6702,0.09 -0.6803,0.1 -0.6802,0.11 -0.6603,0.14 -0.6702,0.15 -0.6602,0.17 -0.6603,0.1899 -0.6502,0.21 -0.6402,0.22 -0.6503,0.24 -0.6202,0.25 -0.6302,0.28 -0.6202,0.2899 -0.6103,0.31 -0.6102,0.32 -0.5802,0.33 -0.5902,0.3599 -0.5702,0.37 -0.5702,0.38 -0.5502,0.4099 -0.5502,0.41 -0.5302,0.43 -0.5102,0.4499 -0.5102,0.45 -0.5001,0.47 -0.4802,0.4799 -0.4702,0.5 -0.4502,0.5099 -0.4501,0.52 -0.4202,0.53 -0.4301,0.5499 -0.3902,0.55 -0.3901,0.5599 -0.3701,0.57 -0.3502,0.5899 -0.3401,0.59 -0.3301,0.6099 -0.3001,0.6 -0.2901,0.6199 -0.2701,0.63 -0.2601,0.6299 -0.2401,0.64 -0.2301,0.6499 -0.2,0.65 -0.1901,0.6599 -0.1701,0.66 -0.16,0.6599 -0.1301,0.67 -0.12,0.6799 -0.1001,0.67 -0.08,0.6799 -0.06,0.6699 -0.05,0.69 -0.02,0.6899 -0.01,0.68 0.01,0.6799 0.02,0.69 0.05,0.6799 0.06,0.68 0.08,0.6699 0.1001,0.68 0.12,0.6799 0.1301,0.6599 0.16,0.67 0.1701,0.6599 0.1901,0.65 0.2,0.6599 0.2301,0.64 0.2401,0.6399 0.2601,0.63 0.2701,0.6299 0.2901,0.62 0.3001,0.6099 0.2001,0.35 0.02,-0.01 0.8403,-0.43 0.8403,-0.4099 0.8503,-0.4 0.8603,-0.37 0.8603,-0.3799 0.8803,-0.34 0.8703,-0.32 0.8904,-0.33 0.8903,-0.2799 0.9003,-0.28 0.9003,-0.26 0.9004,-0.25 0.9103,-0.23 0.9203,-0.1999 0.9203,-0.18 0.9104,-0.18 0.9303,-0.15 0.9303,-0.14 0.9304,-0.12 0.9403,-0.1 0.9304,-0.08 0.9403,-0.07 0.9203,-0.0399 0.9604,-0.02 0.9303,-0.02 H 97.844 L 38.1725,48.0956 Z"
       fill="#ffffff"
       id="path5-8" /><path
       d="m 209.676,217.743 h 0.69 l 0.68,-0.04 0.681,-0.04 0.68,-0.06 0.68,-0.09 0.68,-0.1 0.671,-0.11 0.67,-0.14 0.66,-0.15 0.67,-0.17 0.651,-0.19 0.65,-0.21 0.65,-0.22 0.64,-0.24 0.621,-0.26 0.63,-0.27 0.62,-0.29 0.61,-0.31 0.61,-0.32 0.591,-0.34 0.58,-0.36 0.57,-0.37 0.57,-0.38 0.56,-0.4 0.541,-0.42 0.53,-0.42 0.52,-0.45 0.5,-0.46 0.5,-0.46 0.481,-0.49 0.47,-0.49 0.46,-0.51 0.44,-0.52 0.43,-0.529 0.42,-0.55 0.391,-0.55 0.39,-0.56 0.37,-0.58 0.35,-0.58 0.34,-0.6 0.33,-0.6 0.31,-0.61 0.29,-0.61 0.26,-0.63 0.271,-0.64 0.23,-0.63 0.23,-0.65 0.21,-0.65 0.18,-0.66 0.18,-0.66 0.15,-0.66 0.13,-0.68 0.12,-0.67 0.1,-0.67 0.08,-0.689 0.07,-0.67 0.04,-0.69 0.03,-0.68 v -0.68 -0.68 l -0.03,-0.69 -0.04,-0.68 -0.07,-0.68 -0.08,-0.67 -0.1,-0.68 -0.12,-0.68 -0.13,-0.66 -0.15,-0.67 -0.18,-0.66 -0.18,-0.65 -0.21,-0.66 -0.23,-0.65 -0.23,-0.629 -0.271,-0.63 -0.26,-0.63 -0.29,-0.62 -0.31,-0.61 -0.2,-0.37 -0.02,0.01 -0.84,0.43 -0.841,0.41 -0.85,0.4 -0.86,0.38 -0.87,0.36 -0.871,0.35 -0.87,0.32 -0.89,0.32 -0.901,0.299 -0.89,0.27 -0.89,0.26 -0.921,0.25 -0.9,0.22 -0.92,0.21 -0.921,0.19 -0.92,0.17 -0.92,0.15 -0.931,0.14 -0.93,0.12 -0.93,0.1 -0.941,0.08 -0.94,0.06 -0.94,0.05 -0.931,0.03 -0.94,0.01 h -57.521 l 59.662,16.409 0.42,0.13 0.35,0.13 0.35,0.14 0.33,0.16 0.33,0.18 0.32,0.19 0.321,0.2 0.3,0.22 0.29,0.23 0.27,0.25 0.28,0.25 0.26,0.27 0.24,0.28 0.24,0.3 0.21,0.3 0.21,0.31 0.181,0.31 0.17,0.34 0.16,0.34 0.14,0.33 0.14,0.35 0.1,0.37 0.1,0.35 0.07,0.369 0.07,0.36 0.04,0.38 0.02,0.36 0.01,0.38 -0.01,0.37 -0.02,0.38 -0.04,0.36 -0.07,0.37 -0.07,0.37 -0.1,0.36 -0.1,0.35 -0.14,0.36 -0.14,0.34 -0.16,0.34 -0.17,0.32 -0.181,0.33 -0.21,0.31 -0.21,0.3 -0.24,0.29 -0.24,0.28 -0.26,0.27 -0.28,0.26 -0.27,0.25 -0.29,0.22 -0.3,0.22 -0.321,0.21 -0.32,0.19 -0.33,0.17 -0.33,0.15 -0.35,0.15 -0.35,0.13 -0.35,0.11 -0.36,0.09 -0.36,0.08 -0.381,0.05 -0.36,0.04 -0.38,0.04 -0.37,0.01"
       fill="#ffffff"
       id="path6-9" /><path
       d="m 249.96,207.964 -0.04,-0.85 -0.06,-0.85 -0.09,-0.86 -0.09,-0.85 -0.12,-0.84 -0.14,-0.85 -0.15,-0.84 -0.17,-0.84 -0.19,-0.84 -0.21,-0.82 -0.221,-0.83 -0.24,-0.83 -0.26,-0.8 -0.28,-0.82 -0.3,-0.799 -0.3,-0.79 -0.33,-0.8 -0.35,-0.78 -0.35,-0.78 -0.381,-0.77 -0.4,-0.75 -0.4,-0.76 -0.43,-0.74 -0.45,-0.74 -0.45,-0.72 -0.47,-0.72 -0.491,-0.7 -0.5,-0.69 -0.52,-0.69 -0.52,-0.66 -0.55,-0.67 -0.561,-0.639 -0.57,-0.64 -0.59,-0.62 -0.59,-0.62 -0.62,-0.59 -0.621,-0.59 -0.63,-0.57 -0.65,-0.56 -0.66,-0.55 -0.04,-0.03 -0.941,0.57 -0.83,0.47 -0.86,0.47 -0.11,0.06 0.22,0.41 0.31,0.61 0.29,0.62 0.26,0.63 0.27,0.63 0.23,0.629 0.23,0.65 0.21,0.66 0.18,0.65 0.18,0.66 0.151,0.67 0.13,0.66 0.12,0.68 0.1,0.68 0.08,0.67 0.07,0.68 0.04,0.68 0.03,0.69 v 0.68 0.68 l -0.03,0.68 -0.04,0.69 -0.07,0.67 -0.08,0.69 -0.1,0.669 -0.12,0.67 -0.13,0.68 -0.151,0.66 -0.18,0.66 -0.18,0.66 -0.21,0.65 -0.23,0.65 -0.23,0.63 -0.27,0.64 -0.26,0.63 -0.29,0.61 -0.31,0.61 -0.33,0.6 -0.341,0.6 -0.35,0.58 -0.37,0.58 -0.39,0.56 -0.39,0.55 -0.42,0.55 -0.43,0.529 -0.441,0.52 -0.46,0.51 -0.47,0.49 -0.48,0.49 -0.5,0.46 -0.5,0.46 -0.521,0.45 -0.53,0.42 -0.54,0.42 -0.56,0.4 -0.57,0.38 -0.571,0.37 -0.58,0.36 -0.59,0.34 -0.61,0.32 -0.61,0.31 -0.621,0.29 -0.63,0.27 -0.62,0.26 -0.64,0.24 -0.651,0.22 -0.65,0.21 -0.65,0.19 -0.67,0.17 -0.661,0.15 -0.67,0.14 -0.67,0.11 -0.68,0.1 -0.681,0.09 -0.68,0.06 -0.68,0.04 -0.68,0.04 H 209.675 0 V 250 h 209.675 l 0.861,-0.01 0.85,-0.02 0.86,-0.05 0.851,-0.07 0.86,-0.07 0.85,-0.1 0.851,-0.13 0.84,-0.13 0.84,-0.15 0.841,-0.18 0.83,-0.19 0.83,-0.2 0.82,-0.22 0.831,-0.25 0.81,-0.25 0.81,-0.29 0.811,-0.29 0.8,-0.31 0.79,-0.32 0.78,-0.34 0.781,-0.37 0.76,-0.38 0.77,-0.389 0.741,-0.41 0.75,-0.42 0.73,-0.44 0.72,-0.47 0.721,-0.46 0.7,-0.49 0.69,-0.51 0.69,-0.51 0.671,-0.53 0.66,-0.55 0.65,-0.56 0.63,-0.56 0.621,-0.59 0.62,-0.6 0.59,-0.61 0.59,-0.63 0.57,-0.63 0.561,-0.65 0.55,-0.66 0.52,-0.67 0.52,-0.68 0.5,-0.699 0.491,-0.7 0.47,-0.72 0.45,-0.72 0.45,-0.74 0.43,-0.74 0.4,-0.75 0.4,-0.76 0.381,-0.77 0.35,-0.77 0.35,-0.79 0.33,-0.79 0.3,-0.79 0.3,-0.81 0.28,-0.81 0.26,-0.82 0.24,-0.82 0.221,-0.819 0.21,-0.84 0.19,-0.83 0.17,-0.83 0.15,-0.85 0.14,-0.84 0.12,-0.85 0.09,-0.85 0.09,-0.85 0.06,-0.86 0.04,-0.85 0.04,-0.85 v -0.86 -0.86 z"
       fill="#3d95fd"
       id="path7-1" /><path
       d="m 0.0400144,42.0266 0.0400144,0.86 0.0600212,0.8499 0.090033,0.8599 0.100036,0.85 0.110039,0.8399 0.140051,0.8499 0.150054,0.84 0.170061,0.8399 0.190066,0.8299 0.21008,0.83 0.22008,0.8199 0.24008,0.8299 0.2701,0.81 0.2701,0.8099 0.30011,0.8099 0.3001,0.79 0.33012,0.7999 0.35013,0.7799 0.36013,0.78 0.37013,0.7599 0.40015,0.76 0.41014,0.7599 0.42016,0.7399 0.45016,0.74 0.45016,0.7099 0.47017,0.72 0.49018,0.7099 0.50018,0.69 0.52018,0.6899 0.53019,0.66 0.5402,0.6699 0.56018,0.6399 0.5702,0.64 0.5902,0.6199 0.6003,0.61 0.6102,0.5999 0.6202,0.59 0.6302,0.5699 0.6503,0.56 0.6702,0.54 0.03,0.03 0.9403,-0.56 0.8303,-0.47 0.8604,-0.4799 0.12,-0.05 -0.2301,-0.41 -0.3001,-0.6099 -0.2901,-0.62 -0.2701,-0.6299 -0.2601,-0.63 -0.2401,-0.6399 -0.2301,-0.64 -0.2,-0.6599 -0.1901,-0.65 -0.1701,-0.6599 -0.16,-0.67 -0.1301,-0.6599 -0.12,-0.68 -0.1,-0.6799 -0.0801,-0.6699 -0.06,-0.68 -0.05,-0.6799 -0.02,-0.69 -0.01,-0.6799 0.01,-0.68 0.02,-0.6899 0.05,-0.69 0.06,-0.6699 0.0801,-0.68 0.1,-0.6699 0.12,-0.68 0.1301,-0.6699 0.16,-0.6599 0.1701,-0.66 0.1901,-0.6599 0.2,-0.65 0.2301,-0.6499 0.2401,-0.64 0.2601,-0.6299 0.2701,-0.63 0.2901,-0.6199 0.3001,-0.6 0.3301,-0.6099 0.3402,-0.59 0.3501,-0.5899 0.3701,-0.57 0.3902,-0.56 0.3901,-0.5499 0.4302,-0.55 0.4201,-0.5299 0.4502,-0.52 0.4501,-0.5099 0.4702,-0.5 0.4802,-0.48 0.5002,-0.4699 0.5101,-0.45 0.5102,-0.45 0.5302,-0.4299 0.5502,-0.41 0.5502,-0.41 0.5702,-0.3799 0.5702,-0.37 0.5902,-0.36 0.5802,-0.3299 0.6103,-0.32 0.6102,-0.31 0.6202,-0.29 0.6302,-0.2799 0.6202,-0.25 0.6503,-0.24 0.6402,-0.22 0.6502,-0.21 0.6603,-0.19 0.6602,-0.1699 0.6703,-0.15 0.6602,-0.14 0.6802,-0.11 0.6803,-0.1 0.6702,-0.09 0.6803,-0.06 0.6802,-0.05 0.6803,-0.03 H 40.3245 250 V 0 H 40.3245 39.4642 L 38.6139,0.0299976 37.7536,0.0799936 36.9033,0.149988 36.043,0.219982 35.1927,0.319974 34.3524,0.449964 33.5021,0.569954 32.6618,0.729942 31.8215,0.899928 30.9912,1.09991 30.1609,1.2999 29.3406,1.51988 28.5103,1.76986 27.7,2.01984 26.8897,2.29982 26.0894,2.58979 25.2791,2.90977 24.4988,3.22974 23.7185,3.56971 22.9383,3.93968 22.168,4.30966 l -0.7603,0.39996 -0.7503,0.40997 -0.7402,0.41997 -0.7403,0.43996 -0.7203,0.45996 -0.7202,0.46997 -0.7003,0.48996 -0.6902,0.49996 -0.6903,0.51996 -0.6602,0.52995 -0.6702,0.54996 -0.6503,0.54996 -0.6302,0.57 -0.6202,0.5899 -0.6102,0.6 -0.6003,0.6099 -0.5902,0.62 -0.5702,0.6399 -0.56018,0.65 -0.5402,0.6599 -0.53019,0.6699 -0.52018,0.68 -0.50018,0.6999 -0.49018,0.7 -0.47017,0.7099 -0.45016,0.73 -0.45016,0.7299 -0.42016,0.7499 -0.41014,0.75 -0.40015,0.7499 -0.37013,0.78 -0.36013,0.7699 -0.35013,0.7899 -0.33012,0.79 -0.3001,0.7899 -0.30011,0.7999 -0.2701,0.82 -0.2701,0.8099 -0.24008,0.82 -0.22008,0.8299 -0.21008,0.8299 -0.190066,0.84 -0.170061,0.8299 -0.150054,0.8399 -0.140051,0.85 L 0.330119,35.1972 0.230083,36.0471 0.14005,36.897 0.0800288,37.757 0.0400144,38.6069 0,39.4568 v 0.86 0.8599 z"
       fill="#0dc09d"
       id="path8-4" /></g></svg>
