<?xml version="1.0" encoding="UTF-8" standalone="no"?>
<svg
   width="17"
   height="17"
   viewBox="0 0 17 17"
   fit=""
   preserveAspectRatio="xMidYMid"
   focusable="false"
   version="1.1"
   id="svg1"
   sodipodi:docname="data-explorer.svg"
   inkscape:version="1.3.2 (091e20e, 2023-11-25)"
   xmlns:inkscape="http://www.inkscape.org/namespaces/inkscape"
   xmlns:sodipodi="http://sodipodi.sourceforge.net/DTD/sodipodi-0.dtd"
   xmlns="http://www.w3.org/2000/svg"
   xmlns:svg="http://www.w3.org/2000/svg">
  <defs
     id="defs1" />
  <sodipodi:namedview
     id="namedview1"
     pagecolor="#505050"
     bordercolor="#eeeeee"
     borderopacity="1"
     inkscape:showpageshadow="0"
     inkscape:pageopacity="0"
     inkscape:pagecheckerboard="0"
     inkscape:deskcolor="#505050"
     inkscape:zoom="16.857143"
     inkscape:cx="1.3940678"
     inkscape:cy="1.9872881"
     inkscape:window-width="1312"
     inkscape:window-height="888"
     inkscape:window-x="0"
     inkscape:window-y="38"
     inkscape:window-maximized="0"
     inkscape:current-layer="svg1">
    <inkscape:page
       x="0"
       y="0"
       width="17"
       height="17"
       id="page1"
       margin="0"
       bleed="0" />
    <inkscape:page
       x="27"
       y="0"
       width="17"
       height="17"
       id="page2"
       margin="0"
       bleed="0" />
  </sodipodi:namedview>
  <g
     id="Icon"
     transform="translate(2.6101694,1.4237288)"
     style="fill:#ffffff">
    <path
       id="Vector (Stroke) (Stroke)"
       fill-rule="evenodd"
       clip-rule="evenodd"
       d="M 9.18922,3.86548 4.65873,5.68993 2.78735,10.1343 7.31801,8.30987 Z M 6.71843,6.29787 5.67203,6.71926 5.25826,7.70192 6.3047,7.28054 Z"
       fill="currentColor"
       style="fill:#ffffff" />
    <path
       id="Polygon 1 (Stroke)"
       fill-rule="evenodd"
       clip-rule="evenodd"
       d="m 5.66669,0.422568 c 0.20627,-0.119088 0.4604,-0.119088 0.66667,0 L 11.5295,3.42257 c 0.2063,0.11909 0.3333,0.33917 0.3333,0.57735 v 6 c 0,0.23818 -0.127,0.45828 -0.3333,0.57738 l -5.19614,3 c -0.20627,0.1191 -0.4604,0.1191 -0.66667,0 l -5.19615,-3 C 0.264273,10.4582 0.137207,10.2381 0.137207,9.99992 v -6 c 0,-0.23818 0.127066,-0.45826 0.333333,-0.57735 z M 1.47054,4.38482 v 5.2302 L 6.00003,12.2301 10.5295,9.61502 V 4.38482 L 6.00003,1.76972 Z"
       fill="currentColor"
       style="fill:#ffffff" />
  </g>
</svg>
