<?xml version="1.0" encoding="UTF-8" standalone="no"?>
<svg
   width="380.29663"
   height="380.29663"
   viewBox="0 0 380.29664 380.29664"
   fill="none"
   version="1.1"
   id="svg4"
   sodipodi:docname="seqera.svg"
   inkscape:version="1.3.2 (091e20e, 2023-11-25)"
   xmlns:inkscape="http://www.inkscape.org/namespaces/inkscape"
   xmlns:sodipodi="http://sodipodi.sourceforge.net/DTD/sodipodi-0.dtd"
   xmlns="http://www.w3.org/2000/svg"
   xmlns:svg="http://www.w3.org/2000/svg">
  <sodipodi:namedview
     id="namedview4"
     pagecolor="#505050"
     bordercolor="#eeeeee"
     borderopacity="1"
     inkscape:showpageshadow="0"
     inkscape:pageopacity="0"
     inkscape:pagecheckerboard="0"
     inkscape:deskcolor="#505050"
     inkscape:zoom="0.944"
     inkscape:cx="227.75424"
     inkscape:cy="220.33898"
     inkscape:window-width="1312"
     inkscape:window-height="873"
     inkscape:window-x="32"
     inkscape:window-y="119"
     inkscape:window-maximized="0"
     inkscape:current-layer="svg4">
    <inkscape:page
       x="0"
       y="0"
       width="380.29663"
       height="380.29663"
       id="page4"
       margin="0 0 0"
       bleed="0" />
  </sodipodi:namedview>
  <g
     clip-path="url(#clip0_934_9494)"
     id="g4"
     transform="translate(58.262711,58.262711)">
    <path
       d="m 249.96,207.96 -0.05,-0.85 -0.06,-0.85 -0.09,-0.86 -0.09,-0.85 -0.12,-0.84 -0.14,-0.85 -0.15,-0.83 -0.16,-0.85 -0.2,-0.83 -0.2,-0.82 -0.23,-0.83 -0.25,-0.84 -0.25,-0.8 -0.27,-0.81 -0.3,-0.81 -0.31,-0.79 -0.33,-0.8 -0.35,-0.77 -0.35,-0.79 -0.37,-0.77 -0.4,-0.76 -0.4,-0.75 -0.44,-0.75 -0.44,-0.72 -0.45,-0.73 -0.47,-0.71 -0.49,-0.71 -0.5,-0.69 -0.53,-0.69 -0.52,-0.66 -0.54,-0.66 -0.56,-0.65 -0.58,-0.64 -0.59,-0.62 -0.6,-0.62 -0.61,-0.58 -0.61,-0.6 -0.64,-0.57 -0.65,-0.56 -0.65,-0.54 -1.15,0.69 -0.81,0.46 -0.83,0.45 -0.84,0.43 -0.83,0.41 -0.85,0.4 -0.87,0.38 -0.87,0.36 -0.87,0.35 -0.87,0.32 -0.89,0.32 -0.9,0.3 -0.89,0.27 -0.9,0.26 -0.91,0.25 -0.9,0.22 -0.93,0.21 -0.91,0.19 -0.92,0.17 -0.93,0.15 -0.92,0.14 -0.93,0.12 -0.94,0.1 -0.94,0.08 -0.93,0.06 -0.94,0.05 -0.94,0.03 -0.94,0.01 h -57.52 l 59.66,16.41 0.43,0.13 0.35,0.13 0.35,0.14 0.32,0.16 0.34,0.18 0.31,0.19 0.33,0.2 0.3,0.22 0.29,0.23 0.27,0.25 0.28,0.25 0.26,0.27 0.24,0.27 0.23,0.31 0.22,0.3 0.21,0.31 0.17,0.31 0.18,0.34 0.16,0.34 0.14,0.33 0.14,0.35 0.1,0.37 0.1,0.35 0.07,0.37 0.06,0.36 0.04,0.38 0.03,0.36 0.01,0.38 -0.01,0.37 -0.03,0.38 -0.04,0.36 -0.06,0.37 -0.07,0.37 -0.1,0.36 -0.1,0.35 -0.14,0.36 -0.14,0.34 -0.16,0.34 -0.18,0.32 -0.17,0.33 -0.21,0.31 -0.22,0.3 -0.23,0.29 -0.24,0.28 -0.26,0.27 -0.28,0.26 -0.27,0.25 -0.29,0.22 -0.3,0.22 -0.33,0.21 -0.31,0.19 -0.34,0.17 -0.32,0.15 -0.35,0.15 -0.35,0.13 -0.35,0.11 -0.37,0.09 -0.36,0.08 -0.37,0.05 -0.37,0.04 -0.37,0.04 -0.38,0.01 H 0 V 250 h 209.67 l 0.85,-0.01 0.87,-0.03 0.86,-0.03 0.84,-0.08 0.86,-0.07 0.85,-0.1 0.85,-0.13 0.84,-0.12 0.84,-0.15 0.85,-0.18 0.82,-0.2 0.83,-0.2 0.83,-0.22 0.83,-0.24 0.8,-0.26 0.81,-0.28 0.82,-0.3 0.8,-0.31 0.78,-0.31 0.78,-0.35 0.79,-0.37 0.76,-0.37 0.76,-0.39 0.75,-0.42 0.74,-0.42 0.74,-0.45 0.72,-0.45 0.72,-0.47 0.7,-0.49 0.68,-0.5 0.69,-0.51 0.68,-0.54 0.66,-0.55 0.65,-0.55 0.64,-0.57 0.61,-0.59 0.61,-0.59 0.6,-0.61 0.59,-0.64 0.58,-0.62 0.56,-0.65 0.54,-0.67 0.52,-0.67 0.53,-0.68 0.5,-0.7 0.49,-0.7 0.47,-0.71 0.45,-0.73 0.44,-0.73 0.44,-0.75 0.4,-0.75 0.4,-0.75 0.37,-0.78 0.35,-0.77 0.35,-0.79 0.33,-0.79 0.31,-0.8 0.3,-0.8 0.27,-0.81 0.25,-0.81 0.25,-0.83 0.23,-0.82 0.2,-0.83 0.2,-0.83 0.16,-0.84 0.15,-0.84 0.14,-0.85 0.12,-0.85 0.09,-0.85 0.09,-0.85 0.06,-0.86 0.05,-0.84 0.03,-0.86 0.01,-0.86 -0.01,-0.85 z"
       fill="#ffffff"
       id="path1" />
    <path
       d="m 249.96,135.39 -0.05,-0.86 -0.06,-0.85 -0.09,-0.85 -0.09,-0.85 -0.12,-0.85 -0.14,-0.84 -0.15,-0.85 -0.16,-0.84 -0.2,-0.84 -0.2,-0.82 -0.23,-0.83 -0.25,-0.82 -0.25,-0.81 -0.27,-0.82 -0.3,-0.8 -0.31,-0.8 -0.33,-0.78 -0.35,-0.79 -0.35,-0.78 -0.37,-0.76 -0.4,-0.77 -0.4,-0.76 -0.44,-0.73 -0.44,-0.74 -0.45,-0.71 -0.47,-0.73 -0.49,-0.7 -0.5,-0.68 -0.17,-0.23 h -0.01 -89.78 l 59.67,16.41 0.43,0.14 0.35,0.13 0.35,0.13 0.32,0.17 0.34,0.17 0.31,0.19 0.33,0.2 0.3,0.22 0.29,0.24 0.27,0.24 0.28,0.25 0.26,0.27 0.24,0.28 0.23,0.3 0.22,0.3 0.21,0.31 0.17,0.33 0.18,0.32 0.16,0.34 0.14,0.35 0.14,0.35 0.1,0.35 0.1,0.36 0.07,0.36 0.06,0.38 0.04,0.36 0.03,0.38 0.01,0.37 -0.01,0.36 -0.03,0.38 -0.04,0.37 -0.06,0.37 -0.07,0.36 -0.1,0.36 -0.1,0.36 -0.14,0.34 -0.14,0.35 -0.16,0.35 -0.18,0.33 -0.17,0.32 -0.21,0.3 -0.22,0.31 -0.23,0.29 -0.24,0.28 -0.26,0.27 -0.28,0.26 -0.27,0.24 -0.29,0.24 -0.3,0.21 -0.33,0.2 -0.31,0.2 -0.34,0.16 -0.32,0.17 -0.35,0.15 -0.35,0.11 -0.35,0.12 -0.37,0.09 -0.36,0.08 -0.37,0.06 -0.37,0.03 -0.37,0.03 -0.38,0.01 H 127.18 16.13 0 v 32.25 h 122.81 86.86 0.85 l 0.87,-0.02 0.86,-0.05 0.84,-0.07 0.86,-0.07 0.85,-0.1 0.85,-0.12 0.84,-0.13 0.84,-0.16 0.85,-0.18 0.82,-0.18 0.83,-0.22 0.83,-0.21 0.83,-0.25 0.8,-0.26 0.81,-0.28 0.82,-0.28 0.8,-0.32 0.78,-0.32 0.78,-0.35 0.79,-0.36 0.17,-0.09 0.59,-0.29 0.76,-0.39 0.75,-0.41 0.74,-0.42 0.74,-0.44 0.72,-0.46 0.72,-0.48 0.7,-0.47 0.68,-0.52 0.69,-0.51 0.68,-0.54 0.66,-0.53 0.65,-0.57 0.64,-0.57 0.61,-0.58 0.61,-0.6 0.6,-0.61 0.59,-0.62 0.58,-0.64 0.56,-0.65 0.54,-0.66 0.52,-0.67 0.53,-0.68 0.5,-0.7 0.49,-0.7 0.47,-0.72 0.45,-0.72 0.44,-0.74 0.44,-0.74 0.4,-0.75 0.4,-0.76 0.37,-0.78 0.35,-0.76 0.35,-0.78 0.33,-0.79 0.31,-0.8 0.3,-0.8 0.27,-0.81 0.25,-0.83 0.25,-0.81 0.23,-0.83 0.2,-0.83 0.2,-0.84 0.16,-0.84 0.15,-0.84 0.14,-0.85 0.12,-0.85 0.09,-0.85 0.09,-0.85 0.06,-0.85 0.05,-0.86 0.03,-0.85 0.01,-0.85 -0.01,-0.86 z"
       fill="#ffffff"
       id="path2" />
    <path
       d="m 40.33,72.5796 -0.87,0.01 -0.85,0.02 -0.86,0.05 -0.85,0.07 -0.85,0.07 -0.85,0.1 -0.85,0.13 -0.84,0.12 -0.85,0.16 -0.84,0.18 -0.83,0.18 -0.83,0.22 -0.82,0.21 -0.83,0.25 -0.81,0.26 -0.82,0.28 -0.8,0.29 -0.8,0.31 -0.78,0.32 -0.78,0.35 -0.79,0.37 -0.17,0.08 -0.59,0.29 -0.76,0.39 -0.75,0.41 -0.75,0.42 -0.73,0.44 -0.72,0.46 -0.72,0.48 -0.71,0.48 -0.69,0.51 -0.68,0.51 -0.67,0.54 -0.66,0.54 -0.65,0.56 -0.64,0.57 -0.62,0.58 -0.6,0.6 -0.6,0.61 -0.59,0.63 -0.58,0.63 -0.56,0.65 -0.54,0.65 -0.53,0.68 -0.52,0.69 -0.5,0.7 -0.49,0.7 -0.47,0.71 -0.45,0.72 -0.45,0.74 -0.43,0.74 -0.4,0.75 -0.4,0.76 -0.37,0.76 -0.36,0.78 -0.34,0.79 -0.34,0.78 -0.3,0.8 -0.3,0.8 -0.27,0.8204 -0.27,0.82 -0.23,0.81 -0.23,0.83 -0.21,0.83 -0.19,0.84 -0.16,0.84 -0.16,0.84 -0.14,0.85 -0.11,0.85 -0.1,0.84 -0.08,0.85 -0.06,0.86 -0.05,0.85 -0.04,0.85 v 0.86 0.86 l 0.04,0.85 0.05,0.87 0.06,0.85 0.08,0.85 0.1,0.85 0.11,0.85 0.14,0.83 0.16,0.85 0.16,0.84 0.19,0.84 0.21,0.82 0.23,0.83 0.23,0.82 0.27,0.82 0.27,0.81 0.3,0.8 0.3,0.8 0.34,0.79 0.34,0.78 0.36,0.78 0.37,0.76 0.4,0.78 0.4,0.75 0.43,0.73 0.45,0.74 0.45,0.71 0.47,0.73 0.49,0.7 0.5,0.69 0.17,0.22 h 89.79 l -59.68,-16.42 -0.42,-0.13 -0.35,-0.12 -0.35,-0.14 -0.33,-0.17 -0.33,-0.17 -0.32,-0.19 -0.32,-0.21 -0.3,-0.21 -0.3,-0.24 -0.27,-0.24 -0.28,-0.25 -0.25,-0.27 -0.24,-0.28 -0.23,-0.3 -0.23,-0.3 -0.2,-0.31 -0.19,-0.32 -0.17,-0.33 -0.16,-0.34 -0.14,-0.35 -0.13,-0.35 -0.11,-0.35 -0.09,-0.36 -0.08,-0.36 -0.05,-0.38 -0.05,-0.36 -0.02,-0.37 -0.01,-0.38 0.01,-0.36 0.02,-0.38 0.05,-0.37 0.05,-0.36 0.08,-0.38 0.09,-0.35 0.11,-0.36 0.13,-0.35 0.14,-0.34 0.16,-0.35 0.17,-0.33 0.19,-0.32 0.2,-0.3 0.23,-0.31 0.23,-0.29 0.24,-0.29 0.25,-0.26 0.28,-0.26 0.27,-0.24 0.3,-0.24 0.3,-0.21 0.32,-0.2 0.32,-0.2 0.33,-0.16 0.33,-0.16 0.35,-0.16 0.35,-0.11 0.35,-0.12 0.37,-0.09 0.36,-0.07 0.36,-0.07 0.38,-0.03 0.37,-0.04 h 0.38 82.5 H 233.86 250 V 72.5796 H 127.16 Z"
       fill="#ffffff"
       id="path3" />
    <path
       d="M 40.33,0 39.46,0.01 38.61,0.02 37.75,0.08 36.9,0.15 36.05,0.23 35.2,0.33 34.35,0.44 33.51,0.58 32.66,0.73 31.82,0.9 30.99,1.09 30.16,1.3 29.34,1.53 28.51,1.76 27.7,2.03 26.88,2.3 26.08,2.59 25.28,2.91 24.5,3.23 23.72,3.57 22.93,3.94 22.17,4.31 21.41,4.7 20.66,5.11 19.91,5.54 19.18,5.99 18.46,6.44 17.74,6.91 17.03,7.4 l -0.69,0.5 -0.68,0.51 -0.67,0.53 -0.66,0.55 -0.65,0.56 -0.64,0.56 -0.62,0.6 -0.6,0.59 -0.6,0.61 -0.59,0.63 -0.58,0.64 -0.56,0.64 -0.54,0.67 -0.53,0.67 -0.52,0.68 -0.5,0.7 -0.49,0.7 -0.47,0.71 -0.45,0.73 -0.45,0.73 -0.43,0.74 -0.4,0.75 -0.4,0.76 L 3.94,22.94 3.58,23.71 3.24,24.5 2.9,25.29 2.6,26.08 2.3,26.89 2.03,27.7 1.76,28.51 1.53,29.34 1.3,30.16 1.09,30.99 0.9,31.83 0.74,32.66 0.58,33.5 0.44,34.35 0.33,35.2 0.23,36.05 0.15,36.9 0.09,37.75 0.04,38.6 0,39.46 v 0.85 0.87 l 0.04,0.86 0.05,0.85 0.06,0.85 0.08,0.86 0.1,0.85 0.11,0.84 0.14,0.85 0.16,0.84 0.16,0.83 0.19,0.84 0.21,0.82 0.23,0.83 0.23,0.83 0.27,0.81 0.27,0.81 0.3,0.8 0.3,0.8 0.34,0.8 0.34,0.78 0.36,0.78 0.37,0.77 0.4,0.75 0.4,0.76 0.43,0.73 0.45,0.74 0.45,0.73 0.47,0.71 0.49,0.71 0.5,0.69 0.52,0.69 0.53,0.66 0.54,0.66 0.56,0.65 0.58,0.64 0.59,0.63 0.6,0.61 0.6,0.59 0.62,0.58 0.64,0.58 0.65,0.56 0.65,0.54 h 0.01 l 1.14,-0.69 0.81,-0.46 0.83,-0.45 0.84,-0.43 0.83,-0.41 0.85,-0.4 0.87,-0.37 0.86,-0.38 0.88,-0.34 0.87,-0.32 0.89,-0.33 0.89,-0.28 0.9,-0.28 0.9,-0.26 0.9,-0.25 0.91,-0.23 0.93,-0.2 0.91,-0.18 0.91,-0.18 0.93,-0.15 0.93,-0.14 0.93,-0.12 0.94,-0.1 0.94,-0.08 0.93,-0.07 0.93,-0.04 0.95,-0.02 0.94,-0.02 H 97.85 L 38.18,48.1 37.76,47.98 37.41,47.84 37.06,47.69 36.73,47.54 36.4,47.36 l -0.32,-0.18 -0.32,-0.2 -0.3,-0.23 -0.3,-0.22 -0.27,-0.25 -0.28,-0.26 -0.25,-0.27 -0.24,-0.27 -0.23,-0.3 -0.23,-0.3 -0.2,-0.32 -0.19,-0.32 -0.17,-0.33 -0.16,-0.33 -0.14,-0.34 -0.13,-0.37 -0.11,-0.34 -0.09,-0.35 -0.08,-0.38 -0.05,-0.36 -0.05,-0.38 -0.02,-0.37 -0.01,-0.38 0.01,-0.37 0.02,-0.36 0.05,-0.37 0.05,-0.37 0.08,-0.36 0.09,-0.37 0.11,-0.36 0.13,-0.35 0.14,-0.34 0.16,-0.33 0.17,-0.34 0.19,-0.31 0.2,-0.32 0.23,-0.3 0.23,-0.28 0.24,-0.29 0.25,-0.28 0.28,-0.25 0.27,-0.25 0.3,-0.22 0.3,-0.21 0.32,-0.22 0.32,-0.18 0.33,-0.18 0.33,-0.16 0.35,-0.14 0.35,-0.12 0.35,-0.12 0.37,-0.1 0.36,-0.07 0.36,-0.06 0.38,-0.04 0.37,-0.03 0.38,-0.01 H 250 V 0 Z"
       fill="#ffffff"
       id="path4" />
  </g>
  <defs
     id="defs4">
    <clipPath
       id="clip0_934_9494">
      <rect
         width="250"
         height="250"
         fill="#ffffff"
         id="rect4"
         x="0"
         y="0" />
    </clipPath>
  </defs>
</svg>
