<?xml version="1.0" encoding="UTF-8" standalone="no"?>
<svg
   width="70.683868"
   height="18.006001"
   version="1.1"
   id="svg4"
   sodipodi:docname="node-red-seqera.svg"
   inkscape:version="1.3.2 (091e20e, 2023-11-25)"
   xmlns:inkscape="http://www.inkscape.org/namespaces/inkscape"
   xmlns:sodipodi="http://sodipodi.sourceforge.net/DTD/sodipodi-0.dtd"
   xmlns="http://www.w3.org/2000/svg"
   xmlns:svg="http://www.w3.org/2000/svg">
  <defs
     id="defs4">
    <clipPath
       id="clip0_8175_39829">
      <rect
         width="120"
         height="120"
         fill="#ffffff"
         id="rect8"
         x="0"
         y="0" />
    </clipPath>
  </defs>
  <sodipodi:namedview
     id="namedview4"
     pagecolor="#505050"
     bordercolor="#eeeeee"
     borderopacity="1"
     inkscape:showpageshadow="0"
     inkscape:pageopacity="0"
     inkscape:pagecheckerboard="0"
     inkscape:deskcolor="#505050"
     inkscape:zoom="5.8252748"
     inkscape:cx="11.930768"
     inkscape:cy="-22.488209"
     inkscape:window-width="1936"
     inkscape:window-height="1089"
     inkscape:window-x="164"
     inkscape:window-y="196"
     inkscape:window-maximized="0"
     inkscape:current-layer="svg4">
    <inkscape:page
       x="0"
       y="0"
       width="70.683868"
       height="18.006001"
       id="page4"
       margin="0"
       bleed="0" />
  </sodipodi:namedview>
  <g
     stroke="#d6d6d6"
     id="g4"
     transform="matrix(0.75160354,0,0,0.75160354,32.617647,2.2361433)">
    <g
       fill="#9e3131"
       stroke-linejoin="round"
       stroke-width="3.847"
       transform="matrix(0.25848,0,0,0.2614,-63.87,-108.483)"
       id="g3">
      <rect
         x="249.03999"
         y="435.92001"
         width="50.293999"
         height="22.952999"
         ry="6.6079998"
         id="rect1" />
      <rect
         x="345.63"
         y="416.92999"
         width="50.293999"
         height="22.952999"
         ry="6.6079998"
         id="rect2" />
      <rect
         x="376.70999"
         y="459.01001"
         width="50.293999"
         height="22.952999"
         ry="6.6079998"
         id="rect3" />
    </g>
    <path
       d="m 301.04,447.43 c 24.406,0.184 7.107,-18.84 42.708,-19.03 m 31.072,42.08 c -46.966,0.538 -28.989,-22.664 -73.619,-22.944"
       fill="none"
       stroke-width="5.771"
       transform="matrix(0.25848,0,0,0.2614,-63.87,-108.483)"
       id="path3" />
  </g>
  <g
     clip-path="url(#clip0_8175_39829)"
     id="g8"
     transform="matrix(0.14820813,0,0,0.14820813,0.92461656,0.10170327)">
    <path
       d="m 101.873,62.1261 0.168,0.0672 0.168,0.0672 0.159,0.0767 0.158,0.0864 0.154,0.0864 0.154,0.096 0.144,0.1104 0.139,0.1056 0.13,0.12 0.134,0.12 0.125,0.1344 0.115,0.1296 0.115,0.144 0.101,0.1439 0.101,0.1536 0.087,0.1488 0.081,0.1632 0.077,0.1584 0.067,0.1632 0.067,0.168 0.048,0.1728 0.048,0.1679 0.034,0.1824 0.034,0.1728 0.019,0.1824 0.01,0.1728 0.004,0.1776 -0.004,0.1824 -0.01,0.1775 -0.019,0.1776 -0.034,0.1776 -0.034,0.1728 -0.048,0.1776 -0.048,0.168 -0.067,0.1728 -0.067,0.1631 -0.077,0.1584 -0.081,0.1584 -0.087,0.1536 -0.101,0.1536 -0.101,0.144 -0.115,0.1344 -0.115,0.1392 -0.125,0.1247 -0.134,0.1296 -0.13,0.12 -0.139,0.1056 -0.144,0.1008 -0.154,0.1056 -0.154,0.0864 -0.158,0.0864 -0.159,0.072 -0.168,0.072 -0.168,0.0576 -0.168,0.0576 -0.173,0.0384 -0.172,0.0432 -0.183,0.024 -0.173,0.0192 -0.182,0.0192 h -0.029 l 0.182,-0.0048 0.327,-0.0144 0.326,-0.0192 0.327,-0.0288 0.322,-0.0432 0.326,-0.048 0.322,-0.0528 0.322,-0.0672 0.317,-0.072 0.321,-0.0816 0.317,-0.0912 0.312,-0.1008 0.308,-0.1056 0.307,-0.1152 0.302,-0.1248 0.303,-0.1296 0.298,-0.1391 0.293,-0.1488 0.288,-0.1536 0.283,-0.1632 0.278,-0.1728 0.279,-0.1728 0.269,-0.1824 0.269,-0.1967 0.259,-0.2016 0.255,-0.2016 0.249,-0.216 0.245,-0.2208 0.235,-0.2208 0.236,-0.2351 0.225,-0.2352 0.216,-0.2448 0.212,-0.2496 0.206,-0.2544 0.202,-0.2639 0.192,-0.264 0.182,-0.2688 0.183,-0.2784 0.168,-0.2784 0.163,-0.2879 0.159,-0.288 0.144,-0.288 0.139,-0.2976 0.13,-0.3023 0.124,-0.3024 0.116,-0.3072 0.11,-0.312 0.096,-0.3119 0.091,-0.3168 0.082,-0.3168 0.072,-0.3168 0.067,-0.3263 0.058,-0.3216 0.048,-0.3216 0.034,-0.3264 0.033,-0.3263 0.024,-0.3312 0.01,-0.3264 0.005,-0.3264 -0.005,-0.3263 -0.01,-0.3312 -0.024,-0.3264 -0.033,-0.3264 -0.034,-0.3215 -0.048,-0.3264 -0.058,-0.3264 -0.067,-0.3167 -0.072,-0.3216 -0.062,-0.2448 h -11.673 l -0.231,0.0048 H 73.0342 l 28.6378,7.8762 z"
       fill="#ffffff"
       id="path1" />
    <path
       d="m 119.981,64.9818 -0.024,-0.4127 -0.029,-0.408 -0.038,-0.4128 -0.048,-0.4079 -0.053,-0.4032 -0.068,-0.408 -0.076,-0.4031 -0.077,-0.4032 -0.091,-0.3984 -0.101,-0.3983 -0.106,-0.3984 -0.12,-0.3936 -0.125,-0.3887 -0.129,-0.3936 -0.144,-0.384 -0.149,-0.3792 -0.159,-0.3839 -0.163,-0.3744 -0.173,-0.3744 -0.178,-0.3695 -0.192,-0.36 -0.196,-0.3648 -0.207,-0.3551 -0.211,-0.3552 -0.216,-0.3456 -0.231,-0.3456 -0.23,-0.3359 -0.24,-0.3312 -0.082,-0.1056 h -3.577 l 0.062,0.2448 0.072,0.3216 0.067,0.3167 0.058,0.3264 0.048,0.3264 0.034,0.3215 0.033,0.3264 0.024,0.3264 0.01,0.3312 0.005,0.3263 -0.005,0.3264 -0.01,0.3264 -0.024,0.3312 -0.033,0.3263 -0.034,0.3264 -0.048,0.3216 -0.058,0.3216 -0.067,0.3263 -0.072,0.3168 -0.081,0.3168 -0.092,0.3168 -0.096,0.3119 -0.11,0.312 -0.115,0.3072 -0.125,0.3024 -0.13,0.3023 -0.139,0.2976 -0.144,0.288 -0.159,0.288 -0.163,0.2879 -0.168,0.2784 -0.182,0.2784 -0.183,0.2688 -0.192,0.264 -0.202,0.2639 -0.206,0.2544 -0.211,0.2496 -0.217,0.2448 -0.225,0.2352 -0.235,0.2351 -0.236,0.2208 -0.245,0.2208 -0.249,0.216 -0.255,0.2016 -0.259,0.2016 -0.269,0.1967 -0.269,0.1824 -0.278,0.1728 -0.279,0.1728 -0.283,0.1632 -0.288,0.1536 -0.293,0.1488 -0.298,0.1391 -0.302,0.1296 -0.303,0.1248 -0.307,0.1152 -0.308,0.1056 -0.312,0.1008 -0.317,0.0912 -0.321,0.0816 -0.317,0.072 -0.322,0.0672 -0.322,0.0528 -0.326,0.048 -0.322,0.0432 -0.326,0.0288 -0.327,0.0192 -0.326,0.0144 -0.332,0.0048 H 0 v 15.4835 h 100.644 l 0.413,-0.0048 0.408,-0.0096 0.413,-0.024 0.408,-0.0336 0.409,-0.0384 0.408,-0.0432 0.408,-0.0624 0.403,-0.0624 0.404,-0.0719 0.403,-0.0864 0.403,-0.0912 0.394,-0.096 0.399,-0.1104 0.398,-0.1152 0.389,-0.12 0.389,-0.1392 0.384,-0.1392 0.384,-0.1488 0.38,-0.1536 0.374,-0.1631 0.375,-0.1776 0.369,-0.1824 0.365,-0.1872 0.36,-0.1968 0.356,-0.2016 0.355,-0.216 0.341,-0.2159 0.346,-0.2256 0.341,-0.2352 0.331,-0.24 0.326,-0.2496 0.322,-0.2543 0.322,-0.264 0.312,-0.2688 0.303,-0.2688 0.297,-0.2831 0.293,-0.288 0.288,-0.2928 0.279,-0.3024 0.278,-0.3024 0.269,-0.3119 0.259,-0.3168 0.255,-0.3216 0.25,-0.3311 0.24,-0.3312 0.23,-0.336 0.231,-0.3456 0.216,-0.3455 0.211,-0.3552 0.207,-0.3552 0.196,-0.36 0.192,-0.3647 0.178,-0.3696 0.173,-0.3696 0.163,-0.3791 0.159,-0.3792 0.149,-0.3792 0.144,-0.3887 0.129,-0.3888 0.125,-0.3888 0.12,-0.3984 0.106,-0.3935 0.101,-0.3984 0.091,-0.4032 0.077,-0.3983 0.076,-0.4032 0.068,-0.408 0.053,-0.4079 0.048,-0.408 0.038,-0.408 0.029,-0.4127 0.024,-0.408 0.014,-0.408 0.005,-0.4127 -0.005,-0.4128 z"
       fill="#fa6863"
       id="path2" />
    <path
       d="m 18.1263,57.8605 -0.1681,-0.0624 -0.1681,-0.0672 -0.1584,-0.0768 -0.1633,-0.0864 -0.1488,-0.0912 -0.1537,-0.0959 -0.144,-0.1056 -0.1393,-0.1104 -0.1344,-0.12 -0.1297,-0.12 -0.1248,-0.1296 -0.1153,-0.1344 -0.1152,-0.144 -0.1009,-0.144 -0.1008,-0.1488 -0.0864,-0.1487 -0.0817,-0.1632 -0.0816,-0.1632 -0.0624,-0.1584 -0.0672,-0.168 -0.048,-0.1776 -0.0481,-0.168 -0.0384,-0.1776 -0.0288,-0.1727 -0.0192,-0.1824 -0.0096,-0.1728 -0.0048,-0.1824 0.0048,-0.1776 0.0096,-0.1824 0.0192,-0.1728 0.0288,-0.1775 0.0384,-0.1776 0.0481,-0.1728 0.048,-0.168 0.0672,-0.1728 0.0624,-0.1632 0.0816,-0.1632 0.0817,-0.1535 0.0864,-0.1584 0.1008,-0.1488 0.1009,-0.144 0.1152,-0.1392 0.1153,-0.1344 0.1248,-0.1296 0.1297,-0.1248 0.1344,-0.12 0.1393,-0.1055 0.144,-0.1056 0.1537,-0.1008 0.1488,-0.0912 0.1633,-0.0816 0.1584,-0.072 0.1681,-0.072 0.1681,-0.0624 0.168,-0.0528 0.1729,-0.0432 0.1728,-0.0384 0.1825,-0.024 0.1729,-0.0192 0.1776,-0.0192 h 0.0336 -0.1824 l -0.3265,0.0144 -0.3266,0.024 -0.3265,0.0288 -0.3217,0.0384 -0.3265,0.048 -0.3265,0.0576 -0.3169,0.0624 -0.3218,0.0768 -0.3169,0.0816 -0.3169,0.0912 -0.3121,0.1008 -0.3073,0.1056 -0.3121,0.1103 -0.2977,0.1248 -0.3025,0.1344 -0.2977,0.1392 -0.2929,0.1488 -0.293,0.1536 -0.2785,0.1584 -0.2785,0.1728 -0.2785,0.1776 -0.2737,0.1823 -0.264,0.1968 -0.2641,0.1968 -0.2497,0.2064 -0.2497,0.2112 -0.2449,0.2208 -0.2353,0.2255 -0.2353,0.2304 -0.2257,0.24 -0.216,0.24 -0.21612,0.2496 -0.20167,0.2591 -0.20648,0.2592 -0.18726,0.264 -0.18727,0.2736 -0.17766,0.2736 -0.16806,0.2831 -0.16326,0.2832 -0.15846,0.2928 -0.14405,0.288 -0.13925,0.2975 -0.12965,0.3024 -0.12484,0.3024 -0.11524,0.3072 -0.11044,0.3119 -0.09604,0.312 -0.09123,0.3168 -0.08163,0.312 -0.07203,0.3215 -0.06722,0.3216 -0.05762,0.3264 -0.04802,0.3216 -0.03361,0.3263 -0.03361,0.3216 -0.02401,0.3312 -0.00961,0.3264 -0.0048,0.3263 0.0048,0.3312 0.00961,0.3264 0.02401,0.3263 0.03361,0.3264 0.03361,0.3264 0.04802,0.3264 0.05762,0.3215 0.06722,0.3216 0.07203,0.3168 0.06242,0.2496 H 19.125 l 0.2305,-0.0048 H 46.9654 L 18.3279,57.9229 Z"
       fill="#ffffff"
       id="path3-7" />
    <path
       d="m 0.0192069,55.0087 0.0192069,0.4128 0.0336121,0.408 0.0384141,0.4079 0.048017,0.408 0.052819,0.408 0.067224,0.4031 0.072026,0.408 0.08163,0.4032 0.091232,0.3983 0.100837,0.3984 0.105638,0.3984 0.120043,0.3935 0.124845,0.3888 0.129649,0.3888 0.14405,0.3887 0.14885,0.3792 0.15846,0.384 0.16326,0.3743 0.17286,0.3744 0.17766,0.3648 0.19207,0.3648 0.19687,0.3647 0.20648,0.3552 0.21128,0.3504 0.21607,0.3455 0.22568,0.3456 0.23529,0.3408 0.24009,0.3312 0.08162,0.1056 H 7.45228 L 7.38986,65.5535 7.31783,65.2367 7.25061,64.9151 7.19299,64.5936 7.14497,64.2672 7.11136,63.9408 7.07775,63.6144 7.05374,63.2881 7.04414,62.9617 7.03933,62.6305 l 0.00481,-0.3264 0.0096,-0.3263 0.02401,-0.3312 0.03361,-0.3216 0.03361,-0.3264 0.04802,-0.3215 0.05762,-0.3264 0.06722,-0.3216 0.07203,-0.3216 0.08163,-0.3119 0.09123,-0.3168 0.09604,-0.312 0.11044,-0.312 0.11524,-0.3071 0.12484,-0.3024 0.12965,-0.3024 0.13925,-0.2976 0.14405,-0.2879 0.15846,-0.2928 0.16326,-0.2832 0.16806,-0.2832 0.17766,-0.2735 0.18727,-0.2736 0.18727,-0.264 0.20647,-0.2592 0.20167,-0.2592 0.21605,-0.2495 0.2161,-0.24 0.2257,-0.24 0.2353,-0.2304 0.2353,-0.2256 0.2448,-0.2207 0.2497,-0.2112 0.2497,-0.2064 0.2641,-0.1968 0.2641,-0.1968 0.2737,-0.1824 0.2785,-0.1776 0.2785,-0.1727 0.2785,-0.1584 0.2929,-0.1536 0.2929,-0.1488 0.2977,-0.1392 0.3025,-0.1344 0.2978,-0.1248 0.3121,-0.1104 0.3073,-0.1056 0.3121,-0.1007 0.3169,-0.0912 0.3169,-0.0816 0.3217,-0.0768 0.3169,-0.0624 0.3266,-0.0576 0.3265,-0.048 0.3217,-0.0384 0.3265,-0.0288 0.3265,-0.024 0.3265,-0.0144 0.3314,-0.0048 H 120 V 34.8359 H 19.3558 l -0.413,0.0048 -0.4081,0.0096 -0.413,0.024 -0.4081,0.0288 -0.413,0.0384 -0.4033,0.048 -0.4082,0.0576 -0.4033,0.0624 -0.4034,0.0768 -0.4081,0.0816 -0.3985,0.0912 -0.3986,0.1008 -0.3937,0.1056 -0.3986,0.12 -0.3889,0.12 -0.389,0.1343 -0.3841,0.1392 -0.3841,0.1536 -0.3794,0.1536 -0.3745,0.1632 -0.3745,0.1776 -0.3698,0.1824 -0.3649,0.1824 -0.36013,0.2015 -0.35533,0.2016 -0.35533,0.2112 -0.34572,0.2208 -0.34573,0.2256 -0.33612,0.2352 -0.33132,0.2399 -0.33132,0.2448 -0.31691,0.2544 -0.32172,0.264 -0.31211,0.2687 -0.30251,0.2736 -0.2977,0.2832 -0.29291,0.2832 -0.2881,0.2976 -0.2833,0.3023 -0.2737,0.3024 -0.2689,0.312 -0.25929,0.3168 -0.25449,0.3215 -0.24969,0.3264 -0.24009,0.336 -0.23529,0.336 -0.22568,0.3407 -0.21607,0.3504 -0.21128,0.3552 -0.20648,0.3551 -0.19687,0.3552 -0.19207,0.3648 -0.17766,0.3744 -0.17286,0.3695 -0.16326,0.3792 -0.15846,0.3744 -0.14885,0.3839 -0.14405,0.384 -0.129649,0.3888 -0.124845,0.3935 -0.120043,0.3936 -0.105638,0.3984 -0.100837,0.3983 -0.091232,0.4032 -0.08163,0.3984 -0.072026,0.4031 -0.067224,0.408 -0.052819,0.408 -0.048017,0.4079 -0.0384141,0.408 -0.0336121,0.408 -0.0192069,0.408 L 0,53.7752 v 0.4128 0.4128 z"
       fill="#f18046"
       id="path4" />
    <path
       d="m 18.1263,23.0294 -0.1681,-0.0672 -0.1681,-0.072 -0.1632,-0.072 -0.1537,-0.0864 -0.1584,-0.0864 -0.1489,-0.096 -0.144,-0.1104 -0.1441,-0.1056 -0.1344,-0.12 -0.1297,-0.12 -0.12,-0.1343 -0.1153,-0.1296 -0.1152,-0.144 -0.1057,-0.144 -0.096,-0.1536 -0.0912,-0.1536 -0.0817,-0.1584 -0.0816,-0.1584 -0.0624,-0.1631 -0.0624,-0.1728 -0.0528,-0.168 -0.0433,-0.168 -0.0384,-0.1824 -0.0288,-0.1728 -0.024,-0.1824 -0.0048,-0.1775 -0.0048,-0.1824 0.0048,-0.1776 0.0048,-0.1728 0.024,-0.1776 0.0288,-0.1776 0.0384,-0.1728 0.0433,-0.1775 0.0528,-0.1728 0.0624,-0.168 0.0624,-0.1632 0.0816,-0.1584 0.0817,-0.1632 0.0912,-0.1488 0.096,-0.1536 0.1057,-0.1439 0.1152,-0.1344 0.1153,-0.1392 0.12,-0.1344 0.1297,-0.12 0.1344,-0.12 0.1441,-0.1056 0.144,-0.1008 0.1489,-0.1056 0.1584,-0.0864 0.1537,-0.0864 0.1632,-0.0768 0.1681,-0.0671 0.1681,-0.0576 0.168,-0.0576 0.1729,-0.048 0.1776,-0.0336 0.1729,-0.0288 0.1777,-0.0192 0.1824,-0.0144 h 0.0577 -0.2113 l -0.3265,0.0144 -0.3266,0.024 -0.3265,0.0288 -0.3217,0.0432 -0.3265,0.048 -0.3265,0.0528 -0.3169,0.0672 -0.3218,0.0719 -0.3169,0.0816 -0.3169,0.0912 -0.3121,0.1008 -0.3073,0.1056 -0.3121,0.1152 -0.2977,0.12 -0.3025,0.1344 -0.2977,0.1392 -0.2929,0.1488 -0.293,0.1536 -0.2785,0.1583 -0.2833,0.1728 -0.2737,0.1776 -0.2737,0.1824 -0.264,0.1968 -0.2641,0.1968 -0.2545,0.2063 -0.2449,0.216 -0.2449,0.216 -0.2401,0.2256 -0.2305,0.2304 -0.2257,0.24 -0.216,0.2447 -0.21612,0.2496 -0.20167,0.2544 -0.20648,0.264 -0.18726,0.264 -0.18727,0.2687 -0.17766,0.2736 -0.16806,0.2832 -0.16326,0.2832 -0.15846,0.2927 -0.14405,0.288 -0.13925,0.2976 -0.12965,0.3024 -0.12484,0.3023 -0.11524,0.3072 -0.11044,0.312 -0.09604,0.312 -0.09123,0.3167 -0.08163,0.3168 -0.07683,0.3168 -0.06242,0.3216 -0.05762,0.3263 -0.04802,0.3216 -0.03841,0.3264 -0.02881,0.3216 -0.02401,0.3311 -0.00961,0.3312 -0.0048,0.3264 0.0048,0.3264 0.00961,0.3311 0.02401,0.3264 0.02881,0.3264 0.03841,0.3216 0.04802,0.3263 0.05762,0.3264 0.06242,0.3168 0.07683,0.3216 0.08163,0.3167 0.09123,0.312 0.09604,0.3168 0.11044,0.3072 0.11524,0.3071 0.12484,0.3024 0.12965,0.3024 0.13925,0.2976 0.14405,0.2927 0.09603,0.168 0.00961,-0.0048 0.40334,-0.2064 0.40335,-0.1967 0.40815,-0.192 0.41296,-0.1776 0.4129,-0.1824 0.4226,-0.1632 0.4177,-0.1536 0.4274,-0.1584 0.4273,-0.1344 0.4322,-0.1343 0.4322,-0.1248 0.4321,-0.12 0.437,-0.1104 0.4417,-0.096 0.4418,-0.0864 0.4369,-0.0864 0.4466,-0.072 0.4466,-0.0672 0.4465,-0.0576 0.4514,-0.048 0.4465,-0.0384 0.4514,-0.0336 0.4418,-0.0192 0.4609,-0.0096 0.4466,-0.0096 H 46.9654 L 18.3231,23.087 Z"
       fill="#ffffff"
       id="path5" />
    <path
       d="m 100.644,104.515 h 0.331 l 0.327,-0.019 0.326,-0.019 0.327,-0.029 0.327,-0.043 0.326,-0.048 0.322,-0.053 0.321,-0.067 0.317,-0.072 0.322,-0.082 0.312,-0.091 0.312,-0.101 0.312,-0.105 0.308,-0.116 0.297,-0.124 0.303,-0.13 0.298,-0.139 0.293,-0.149 0.292,-0.154 0.284,-0.163 0.278,-0.173 0.274,-0.177 0.274,-0.183 0.269,-0.192 0.259,-0.201 0.254,-0.202 0.25,-0.216 0.24,-0.22 0.24,-0.221 0.231,-0.235 0.225,-0.236 0.221,-0.244 0.212,-0.25 0.206,-0.2543 0.202,-0.264 0.187,-0.264 0.187,-0.2688 0.178,-0.2783 0.168,-0.2784 0.163,-0.288 0.159,-0.288 0.149,-0.2927 0.139,-0.2928 0.125,-0.3024 0.129,-0.3072 0.111,-0.3023 0.11,-0.312 0.101,-0.312 0.086,-0.3168 0.087,-0.3167 0.072,-0.3168 0.062,-0.3264 0.058,-0.3216 0.048,-0.3215 0.038,-0.3312 0.034,-0.3216 0.019,-0.3312 0.015,-0.3263 v -0.3264 -0.3264 l -0.015,-0.3312 -0.019,-0.3263 -0.034,-0.3264 -0.038,-0.3216 -0.048,-0.3264 -0.058,-0.3263 -0.062,-0.3168 -0.072,-0.3216 -0.087,-0.3168 -0.086,-0.3119 -0.101,-0.3168 -0.11,-0.312 -0.111,-0.3024 -0.129,-0.3023 -0.125,-0.3024 -0.139,-0.2976 -0.149,-0.2928 -0.096,-0.1775 -0.01,0.0048 -0.403,0.2063 -0.404,0.1968 -0.408,0.192 -0.413,0.1824 -0.418,0.1728 -0.417,0.168 -0.418,0.1535 -0.427,0.1536 -0.433,0.144 -0.427,0.1296 -0.427,0.1248 -0.442,0.12 -0.432,0.1056 -0.442,0.1008 -0.442,0.0912 -0.441,0.0816 -0.442,0.072 -0.447,0.0672 -0.446,0.0576 -0.447,0.0479 -0.451,0.0384 -0.452,0.0288 -0.451,0.024 -0.447,0.0144 -0.451,0.0048 H 73.0342 l 28.6378,7.8762 0.201,0.0624 0.168,0.0624 0.168,0.0672 0.159,0.0768 0.158,0.0864 0.154,0.0912 0.154,0.096 0.144,0.1056 0.139,0.1103 0.13,0.12 0.134,0.12 0.125,0.1296 0.115,0.1344 0.115,0.144 0.101,0.144 0.101,0.1488 0.087,0.1488 0.081,0.1631 0.077,0.1632 0.067,0.1584 0.067,0.168 0.048,0.1776 0.048,0.168 0.034,0.1776 0.034,0.1723 0.019,0.183 0.01,0.173 0.004,0.182 -0.004,0.178 -0.01,0.182 -0.019,0.173 -0.034,0.177 -0.034,0.178 -0.048,0.173 -0.048,0.168 -0.067,0.173 -0.067,0.163 -0.077,0.163 -0.081,0.153 -0.087,0.159 -0.101,0.149 -0.101,0.144 -0.115,0.139 -0.115,0.134 -0.125,0.13 -0.134,0.125 -0.13,0.12 -0.139,0.105 -0.144,0.106 -0.154,0.101 -0.154,0.091 -0.158,0.081 -0.159,0.072 -0.168,0.072 -0.168,0.063 -0.168,0.053 -0.173,0.043 -0.172,0.038 -0.183,0.024 -0.173,0.019 -0.182,0.02 -0.178,0.004"
       fill="#ffffff"
       id="path6" />
    <path
       d="m 119.981,99.8204 -0.019,-0.408 -0.029,-0.408 -0.043,-0.4127 -0.044,-0.408 -0.057,-0.4032 -0.068,-0.4079 -0.072,-0.4032 -0.081,-0.4032 -0.091,-0.4031 -0.101,-0.3936 -0.106,-0.3984 -0.115,-0.3983 -0.125,-0.384 -0.134,-0.3936 -0.144,-0.3839 -0.145,-0.3792 -0.158,-0.384 -0.168,-0.3744 -0.168,-0.3743 -0.183,-0.3696 -0.192,-0.36 -0.192,-0.3647 -0.206,-0.3552 -0.216,-0.3552 -0.216,-0.3455 -0.226,-0.3456 -0.235,-0.336 -0.24,-0.3312 -0.25,-0.3311 -0.25,-0.3168 -0.264,-0.3216 -0.269,-0.3072 -0.273,-0.3071 -0.284,-0.2976 -0.283,-0.2976 -0.298,-0.2832 -0.297,-0.2831 -0.303,-0.2736 -0.312,-0.2688 -0.317,-0.264 -0.019,-0.0144 -0.452,0.2736 -0.398,0.2256 -0.413,0.2256 -0.053,0.0288 0.106,0.1967 0.149,0.2928 0.139,0.2976 0.125,0.3024 0.129,0.3023 0.111,0.3024 0.11,0.312 0.101,0.3168 0.087,0.3119 0.086,0.3168 0.072,0.3216 0.062,0.3168 0.058,0.3263 0.048,0.3264 0.038,0.3216 0.034,0.3264 0.019,0.3263 0.015,0.3312 v 0.3264 0.3264 l -0.015,0.3263 -0.019,0.3312 -0.034,0.3216 -0.038,0.3312 -0.048,0.3215 -0.058,0.3216 -0.062,0.3264 -0.072,0.3168 -0.086,0.3167 -0.087,0.3168 -0.101,0.312 -0.11,0.3119 -0.111,0.3024 -0.129,0.3072 -0.125,0.3024 -0.139,0.2928 -0.149,0.2927 -0.159,0.288 -0.163,0.288 -0.168,0.2784 -0.178,0.2783 -0.187,0.2688 -0.187,0.264 -0.202,0.264 -0.206,0.254 -0.212,0.25 -0.221,0.245 -0.225,0.235 -0.231,0.235 -0.24,0.221 -0.24,0.221 -0.25,0.216 -0.254,0.201 -0.259,0.202 -0.269,0.192 -0.274,0.182 -0.274,0.178 -0.278,0.173 -0.283,0.163 -0.293,0.153 -0.293,0.149 -0.298,0.139 -0.302,0.13 -0.298,0.125 -0.307,0.115 -0.313,0.105 -0.312,0.101 -0.312,0.091 -0.322,0.082 -0.316,0.072 -0.322,0.067 -0.322,0.053 -0.326,0.048 -0.327,0.043 -0.326,0.029 -0.327,0.019 -0.326,0.019 H 100.644 0 v 15.484 h 100.644 l 0.413,-0.005 0.408,-0.009 0.413,-0.024 0.408,-0.034 0.413,-0.034 0.409,-0.048 0.408,-0.062 0.403,-0.062 0.403,-0.072 0.404,-0.087 0.398,-0.091 0.399,-0.096 0.394,-0.106 0.398,-0.12 0.389,-0.12 0.389,-0.139 0.389,-0.139 0.384,-0.149 0.379,-0.153 0.375,-0.164 0.374,-0.177 0.365,-0.182 0.37,-0.188 0.355,-0.196 0.361,-0.202 0.35,-0.211 0.346,-0.226 0.346,-0.221 0.336,-0.235 0.331,-0.245 0.331,-0.244 0.322,-0.255 0.317,-0.264 0.312,-0.268 0.303,-0.269 0.297,-0.283 0.298,-0.288 0.283,-0.293 0.284,-0.303 0.273,-0.302 0.269,-0.312 0.264,-0.317 0.25,-0.321 0.25,-0.327 0.24,-0.336 0.235,-0.336 0.226,-0.345 0.216,-0.346 0.216,-0.355 0.206,-0.355 0.192,-0.36 0.192,-0.365 0.183,-0.369 0.168,-0.37 0.168,-0.379 0.158,-0.379 0.145,-0.379 0.144,-0.389 0.134,-0.389 0.125,-0.394 0.115,-0.393 0.106,-0.394 0.101,-0.403 0.091,-0.398 0.081,-0.399 0.072,-0.408 0.068,-0.403 0.057,-0.408 0.044,-0.408 0.043,-0.408 0.029,-0.412 0.019,-0.408 0.019,-0.408 v -0.413 -0.413 z"
       fill="#3d95fd"
       id="path7" />
    <path
       d="m 0.0192069,20.1728 0.0192069,0.4128 0.0288104,0.4079 0.0432158,0.4128 0.048017,0.408 0.052819,0.4031 0.067224,0.408 0.072026,0.4032 0.08163,0.4031 0.091232,0.3984 0.100837,0.3984 0.105638,0.3935 0.115241,0.3984 0.129647,0.3888 0.129649,0.3887 0.14405,0.3888 0.14405,0.3792 0.15846,0.3839 0.16806,0.3744 0.17286,0.3744 0.17766,0.3648 0.19207,0.3647 0.19687,0.3648 0.20168,0.3552 0.21608,0.3551 0.21607,0.3408 0.22568,0.3456 0.23529,0.3408 0.24009,0.3311 0.24969,0.3312 0.25449,0.3168 0.25929,0.3216 0.2689,0.3071 0.2737,0.3072 0.2833,0.2976 0.2881,0.2928 0.29291,0.2879 0.2977,0.2832 0.30251,0.2736 0.31211,0.2688 0.32172,0.2591 L 7.2122,34.4228 7.66356,34.1541 8.0621,33.9285 8.47505,33.6981 8.53267,33.6741 8.42223,33.4773 8.27818,33.1845 8.13893,32.887 8.00928,32.5846 7.88444,32.2822 7.7692,31.975 7.65876,31.6679 7.56272,31.3511 7.47149,31.0391 7.38986,30.7223 7.31303,30.4008 7.25061,30.084 7.19299,29.7576 7.14497,29.4312 7.10656,29.1097 7.07775,28.7833 7.05374,28.4569 7.04414,28.1257 7.03933,27.7994 7.04414,27.473 l 0.0096,-0.3312 0.02401,-0.3311 0.02881,-0.3216 0.03841,-0.3264 0.04802,-0.3216 0.05762,-0.3263 0.06242,-0.3216 0.07683,-0.3168 0.08163,-0.3168 0.09123,-0.3167 0.09604,-0.312 0.11044,-0.312 0.11524,-0.3072 0.12484,-0.3023 0.12965,-0.3024 0.13925,-0.2976 0.14405,-0.288 0.15846,-0.2927 0.16326,-0.2832 0.16806,-0.2832 0.17766,-0.2736 0.18727,-0.2688 0.18727,-0.2639 0.20647,-0.264 0.20167,-0.2544 0.21605,-0.2496 0.2161,-0.2448 0.2257,-0.2399 0.2305,-0.2304 0.2401,-0.2256 0.2448,-0.216 0.2449,-0.216 0.2545,-0.2064 0.2641,-0.1967 0.2641,-0.1968 0.2737,-0.1824 0.2737,-0.1776 0.2833,-0.1728 0.2785,-0.1584 0.2929,-0.1535 0.2929,-0.1488 0.2977,-0.1392 0.3025,-0.1344 0.2978,-0.12 0.3121,-0.1152 0.3073,-0.1056 0.3121,-0.1008 0.3169,-0.0912 0.3169,-0.0816 0.3217,-0.072 0.3169,-0.0672 0.3266,-0.0528 0.3265,-0.0479 0.3217,-0.0432 0.3265,-0.0288 0.3265,-0.024 0.3265,-0.0144 H 19.3558 120 V 0 H 19.3558 18.9428 L 18.5347,0.0143988 18.1217,0.0383969 17.7136,0.0719942 17.3006,0.105592 16.8925,0.153588 16.4891,0.215983 16.081,0.273578 15.6776,0.350372 15.2743,0.431965 14.8758,0.527958 14.4772,0.62395 14.0835,0.729542 13.6849,0.849532 13.296,0.969522 12.907,1.10391 12.5229,1.2431 12.134,1.39669 11.7594,1.55028 11.3849,1.71346 11.0104,1.89105 10.6406,2.06863 10.2757,2.26062 9.91557,2.4574 9.56024,2.65899 9.20491,2.87017 8.85919,3.09095 8.51346,3.31653 8.17734,3.55172 7.84602,3.7917 7.5147,4.04128 7.19779,4.29566 6.87607,4.55963 6.56396,4.82361 6.26145,5.09719 5.96375,5.38037 5.67084,5.66835 5.38274,5.96112 5.09944,6.2587 4.82574,6.56587 4.55684,6.87785 4.29755,7.19462 4.04306,7.5162 3.79337,7.84257 3.55328,8.17855 3.31799,8.51452 3.09231,8.85529 2.87624,9.20566 2.66016,9.55603 2.45848,9.91601 2.26161,10.276 2.06954,10.6359 1.89188,11.0103 1.71902,11.3799 1.55096,11.7591 1.3925,12.1382 1.24845,12.5174 1.1044,12.9014 0.974751,13.2949 0.845104,13.6837 0.729863,14.0773 0.624225,14.4756 0.523388,14.874 0.432156,15.2772 0.350526,15.6755 0.2785,16.0787 0.211276,16.4867 0.158457,16.8946 0.11044,17.3026 0.0672242,17.7106 0.0384138,18.1233 0.0192069,18.5313 0,18.9393 v 0.4128 0.4127 z"
       fill="#0dc09d"
       id="path8" />
  </g>
</svg>
